<svg width="250" height="212" viewBox="0 0 250 212" fill="none" xmlns="http://www.w3.org/2000/svg">
<g clip-path="url(#clip0_3587_20)">
<rect width="250" height="212" fill="#12161C"/>
<g clip-path="url(#clip1_3587_20)">
<path d="M41.9382 104.474C41.9382 104.234 41.9857 103.996 42.0778 103.774C42.17 103.552 42.305 103.351 42.4752 103.182C42.6453 103.012 42.8473 102.878 43.0694 102.787C43.2915 102.696 43.5295 102.65 43.7696 102.651L46.8057 102.661C47.2899 102.661 47.7541 102.853 48.0965 103.196C48.4388 103.538 48.6311 104.002 48.6311 104.486V115.969C48.9731 115.868 49.4107 115.759 49.8923 115.646C50.226 115.568 50.5233 115.379 50.7361 115.11C50.949 114.841 51.0648 114.508 51.0649 114.166V99.9236C51.0649 99.4393 51.2572 98.975 51.5995 98.6326C51.9418 98.2902 52.4061 98.0978 52.8903 98.0977H55.9357C56.4198 98.0978 56.8841 98.2902 57.2264 98.6326C57.5687 98.975 57.761 99.4393 57.761 99.9236V113.143C57.761 113.143 58.5229 112.834 59.2646 112.521C59.5402 112.404 59.7754 112.209 59.9408 111.96C60.1063 111.71 60.1946 111.418 60.1948 111.119V95.3596C60.1948 94.8755 60.3871 94.4113 60.7294 94.0689C61.0716 93.7266 61.5358 93.5342 62.0199 93.5341H65.0621C65.5459 93.5346 66.0097 93.7271 66.3517 94.0694C66.6936 94.4117 66.8857 94.8758 66.8857 95.3596V108.337C69.5233 106.425 72.1962 104.126 74.3175 101.361C74.6252 100.96 74.8289 100.488 74.9103 99.9892C74.9916 99.4901 74.9482 98.9785 74.7838 98.5003C73.8019 95.6751 72.241 93.086 70.2012 90.8987C68.1613 88.7114 65.6873 86.974 62.9375 85.7978C60.1877 84.6216 57.2226 84.0324 54.2321 84.0679C51.2415 84.1035 48.2913 84.763 45.5703 86.0042C42.8492 87.2455 40.4172 89.0412 38.4299 91.2764C36.4425 93.5116 34.9437 96.137 34.0292 98.9848C33.1147 101.833 32.8047 104.84 33.119 107.814C33.4334 110.789 34.3651 113.665 35.8547 116.258C36.1142 116.706 36.496 117.07 36.9553 117.308C37.4145 117.546 37.9321 117.648 38.4473 117.602C39.0228 117.551 39.7393 117.479 40.5912 117.379C40.962 117.337 41.3043 117.16 41.5529 116.882C41.8016 116.604 41.9392 116.243 41.9396 115.87V104.474" fill="white"/>
<path d="M41.8735 122.89C45.0802 125.223 48.8698 126.623 52.823 126.936C56.7762 127.249 60.7389 126.462 64.2726 124.662C67.8063 122.862 70.7733 120.12 72.8454 116.739C74.9174 113.357 76.0137 109.469 76.013 105.503C76.013 105.007 75.9899 104.518 75.957 104.031C68.1031 115.746 53.6017 121.222 41.8735 122.89Z" fill="#F0B90B"/>
<path opacity="0.8" d="M87.9505 119.938H84.942L84.4104 121.448H82.8264L85.5905 114.027H87.302L90.0555 121.448H88.4715L87.9505 119.938ZM87.5466 118.801L86.4409 115.632L85.3353 118.801H87.5466ZM97.763 115.484C98.2345 115.477 98.6986 115.602 99.1027 115.845C99.5082 116.096 99.8319 116.46 100.033 116.892C100.266 117.396 100.381 117.947 100.368 118.503C100.381 119.058 100.266 119.609 100.033 120.114C99.8319 120.546 99.5082 120.91 99.1027 121.161C98.6986 121.404 98.2345 121.529 97.763 121.522C97.3133 121.535 96.8698 121.41 96.4924 121.164C96.1481 120.935 95.8862 120.603 95.7433 120.215V124.255H94.2441V115.558H95.7433V116.781C95.8849 116.393 96.1475 116.061 96.4924 115.834C96.871 115.593 97.3139 115.47 97.763 115.484ZM97.2952 116.791C97.0862 116.785 96.8785 116.822 96.6852 116.902C96.4918 116.981 96.3178 117.1 96.1737 117.252C95.8668 117.594 95.7078 118.044 95.7327 118.503C95.7209 118.729 95.7539 118.954 95.8294 119.167C95.9055 119.38 96.0221 119.576 96.1737 119.743C96.3178 119.895 96.4918 120.014 96.6852 120.094C96.8785 120.173 97.0862 120.211 97.2952 120.204C97.5041 120.213 97.7131 120.177 97.9071 120.099C98.1017 120.022 98.2769 119.903 98.4223 119.752C98.7216 119.407 98.8738 118.959 98.8476 118.503C98.8732 118.045 98.721 117.596 98.4223 117.248C98.2782 117.096 98.1029 116.976 97.9083 116.897C97.7137 116.819 97.5048 116.782 97.2952 116.791ZM103.461 116.685C103.671 116.319 103.971 116.014 104.333 115.797C104.699 115.58 105.119 115.467 105.545 115.473V117.078H105.109C104.01 117.078 103.461 117.589 103.461 118.609V121.448H101.963V115.558H103.461V116.685ZM109.628 115.484C110.165 115.475 110.696 115.599 111.174 115.845C111.627 116.082 112.002 116.446 112.253 116.892C112.524 117.385 112.66 117.941 112.646 118.503C112.661 119.064 112.525 119.618 112.253 120.108C112 120.553 111.626 120.916 111.174 121.156C110.697 121.405 110.165 121.531 109.628 121.522C109.089 121.531 108.557 121.405 108.081 121.156C107.628 120.916 107.254 120.553 107.002 120.108C106.73 119.618 106.594 119.064 106.608 118.503C106.594 117.941 106.73 117.385 107.002 116.892C107.252 116.446 107.627 116.082 108.081 115.845C108.558 115.599 109.09 115.475 109.628 115.484ZM109.628 116.781C109.429 116.777 109.233 116.814 109.049 116.89C108.867 116.966 108.701 117.079 108.564 117.222C108.41 117.396 108.292 117.598 108.217 117.818C108.142 118.038 108.112 118.271 108.128 118.503C108.113 118.734 108.142 118.967 108.217 119.186C108.292 119.406 108.41 119.609 108.564 119.782C108.701 119.925 108.867 120.038 109.049 120.114C109.233 120.19 109.429 120.227 109.628 120.224C109.825 120.227 110.022 120.19 110.205 120.114C110.388 120.038 110.553 119.925 110.69 119.782C110.844 119.609 110.962 119.406 111.037 119.186C111.112 118.967 111.142 118.734 111.126 118.503C111.143 118.271 111.112 118.038 111.037 117.818C110.962 117.598 110.844 117.396 110.69 117.222C110.553 117.079 110.388 116.966 110.205 116.89C110.022 116.814 109.825 116.777 109.628 116.781ZM116.548 115.484C116.997 115.47 117.44 115.593 117.818 115.834C118.165 116.062 118.43 116.393 118.579 116.781V113.58H120.067V121.448H118.579V120.215C118.429 120.602 118.163 120.934 117.816 121.164C117.44 121.41 116.998 121.535 116.548 121.522C116.077 121.529 115.613 121.404 115.209 121.161C114.803 120.91 114.48 120.546 114.278 120.114C114.045 119.609 113.931 119.058 113.944 118.503C113.931 117.947 114.045 117.396 114.278 116.892C114.48 116.46 114.803 116.096 115.209 115.845C115.613 115.602 116.077 115.477 116.548 115.484ZM117.016 116.791C116.806 116.782 116.597 116.819 116.402 116.897C116.209 116.976 116.033 117.096 115.889 117.248C115.59 117.596 115.438 118.045 115.464 118.503C115.437 118.959 115.59 119.407 115.889 119.752C116.034 119.903 116.21 120.022 116.404 120.099C116.598 120.177 116.807 120.213 117.016 120.204C117.225 120.21 117.432 120.172 117.625 120.092C117.818 120.013 117.992 119.893 118.136 119.742C118.287 119.574 118.404 119.378 118.48 119.165C118.556 118.952 118.588 118.727 118.577 118.501C118.601 118.043 118.441 117.595 118.136 117.254C117.992 117.102 117.818 116.983 117.625 116.903C117.432 116.823 117.225 116.785 117.016 116.791ZM127.593 115.558V121.448H126.095V120.257C125.947 120.644 125.676 120.971 125.324 121.187C124.951 121.415 124.52 121.531 124.084 121.522C123.78 121.536 123.477 121.483 123.196 121.367C122.915 121.252 122.663 121.076 122.457 120.853C122.026 120.328 121.81 119.659 121.851 118.981V115.558H123.34V118.811C123.315 119.208 123.444 119.598 123.701 119.901C123.827 120.032 123.979 120.135 124.148 120.202C124.316 120.269 124.498 120.3 124.679 120.291C124.871 120.3 125.062 120.267 125.24 120.196C125.418 120.124 125.578 120.015 125.71 119.876C125.985 119.543 126.122 119.117 126.093 118.685V115.56L127.593 115.558ZM132.133 115.484C132.818 115.459 133.491 115.678 134.031 116.1C134.545 116.523 134.884 117.122 134.982 117.78H133.398C133.347 117.489 133.192 117.227 132.962 117.041C132.715 116.854 132.411 116.758 132.101 116.77C131.913 116.766 131.727 116.804 131.555 116.88C131.384 116.956 131.23 117.069 131.108 117.211C130.817 117.577 130.675 118.038 130.708 118.503C130.675 118.968 130.817 119.429 131.106 119.795C131.229 119.937 131.382 120.05 131.554 120.126C131.726 120.202 131.913 120.24 132.101 120.236C132.411 120.248 132.715 120.152 132.962 119.965C133.192 119.779 133.347 119.517 133.398 119.226H134.982C134.884 119.884 134.545 120.483 134.031 120.906C133.491 121.328 132.818 121.547 132.133 121.522C131.6 121.532 131.073 121.406 130.602 121.156C130.16 120.916 129.798 120.552 129.561 120.108C129.302 119.613 129.175 119.061 129.188 118.503C129.175 117.943 129.303 117.389 129.561 116.892C129.796 116.447 130.159 116.083 130.602 115.845C131.074 115.598 131.601 115.474 132.133 115.484ZM139.724 120.162V121.448H138.937C138.39 121.485 137.849 121.314 137.422 120.97C137.072 120.651 136.896 120.119 136.896 119.375V116.823H136.077V115.558H136.896V114.101H138.395V115.558H139.713V116.823H138.395V119.396C138.373 119.609 138.434 119.822 138.565 119.991C138.727 120.121 138.933 120.182 139.139 120.162H139.724ZM146.9 115.484C147.437 115.475 147.969 115.599 148.447 115.845C148.9 116.082 149.275 116.446 149.526 116.892C149.797 117.385 149.932 117.941 149.919 118.503C149.933 119.064 149.797 119.618 149.526 120.108C149.273 120.553 148.898 120.916 148.447 121.156C147.969 121.405 147.438 121.531 146.9 121.522C146.361 121.531 145.829 121.405 145.351 121.156C144.9 120.916 144.526 120.553 144.274 120.108C144.002 119.618 143.867 119.064 143.88 118.503C143.867 117.941 144.002 117.385 144.274 116.892C144.524 116.446 144.898 116.083 145.351 115.845C145.829 115.599 146.361 115.475 146.9 115.484ZM146.9 116.781C146.701 116.777 146.505 116.814 146.322 116.89C146.139 116.966 145.974 117.079 145.837 117.222C145.682 117.396 145.564 117.598 145.489 117.818C145.415 118.038 145.385 118.271 145.401 118.503C145.385 118.734 145.415 118.967 145.49 119.186C145.565 119.406 145.683 119.609 145.837 119.782C145.974 119.925 146.139 120.038 146.322 120.114C146.505 120.19 146.701 120.227 146.9 120.224C147.097 120.227 147.295 120.19 147.477 120.114C147.66 120.038 147.825 119.925 147.963 119.782C148.117 119.609 148.234 119.406 148.309 119.186C148.384 118.967 148.415 118.734 148.399 118.503C148.415 118.271 148.385 118.038 148.31 117.818C148.235 117.598 148.117 117.396 147.963 117.222C147.825 117.079 147.66 116.966 147.477 116.89C147.295 116.814 147.097 116.777 146.9 116.781ZM154.426 114.537C154.105 114.481 153.774 114.549 153.502 114.729C153.402 114.839 153.327 114.968 153.281 115.109C153.235 115.251 153.22 115.4 153.236 115.547V115.558H154.426V116.823H153.236V121.448H151.737V116.823H150.982V115.558H151.737V115.42C151.718 115.122 151.762 114.824 151.865 114.545C151.968 114.266 152.13 114.011 152.337 113.798C152.835 113.386 153.473 113.182 154.118 113.23C154.253 113.23 154.356 113.233 154.426 113.24V114.537ZM160.465 115.377V116.951H163.006V118.322H160.465V119.991H163.324V121.448H158.647V113.931H163.324V115.377H160.465ZM168.247 119.885V121.448H167.428C166.842 121.484 166.265 121.3 165.807 120.932C165.421 120.589 165.227 120.02 165.227 119.226V117.046H164.43V115.515H165.227V114.059H167.046V115.515H168.236V117.046H167.046V119.258C167.026 119.433 167.077 119.609 167.187 119.747C167.325 119.853 167.498 119.902 167.671 119.885H168.247ZM173.562 115.452C173.866 115.438 174.169 115.492 174.45 115.609C174.73 115.727 174.981 115.906 175.183 116.132C175.61 116.659 175.825 117.326 175.786 118.003V121.448H173.968V118.216C173.988 117.877 173.876 117.543 173.655 117.286C173.547 117.174 173.418 117.086 173.273 117.028C173.129 116.97 172.975 116.944 172.82 116.951C172.657 116.943 172.494 116.97 172.343 117.031C172.192 117.091 172.055 117.184 171.943 117.302C171.711 117.581 171.595 117.939 171.619 118.301V121.448H169.801V113.58H171.619V116.6C171.784 116.251 172.048 115.959 172.379 115.76C172.737 115.549 173.147 115.442 173.562 115.452ZM183.151 118.322C183.15 118.487 183.132 118.65 183.098 118.811H178.984C178.97 119.164 179.092 119.508 179.324 119.773C179.538 119.971 179.821 120.076 180.111 120.066C180.351 120.075 180.586 120.004 180.781 119.864C180.954 119.735 181.078 119.551 181.132 119.343H183.056C182.981 119.753 182.806 120.139 182.546 120.465C182.278 120.798 181.936 121.064 181.547 121.241C181.122 121.433 180.662 121.53 180.196 121.524C179.658 121.534 179.126 121.408 178.649 121.157C178.202 120.914 177.834 120.546 177.592 120.098C177.328 119.601 177.195 119.044 177.209 118.482C177.195 117.918 177.325 117.36 177.586 116.86C177.828 116.413 178.196 116.047 178.644 115.808C179.122 115.557 179.656 115.431 180.196 115.441C180.736 115.429 181.27 115.554 181.748 115.802C182.185 116.034 182.545 116.386 182.785 116.818C183.035 117.279 183.162 117.797 183.151 118.322ZM181.313 118.046C181.328 117.885 181.308 117.724 181.253 117.572C181.2 117.421 181.112 117.283 180.999 117.169C180.778 116.972 180.491 116.867 180.196 116.876C179.892 116.866 179.595 116.972 179.367 117.174C179.133 117.404 178.999 117.718 178.995 118.046H181.313ZM186.447 116.632C186.666 116.278 186.967 115.983 187.324 115.771C187.676 115.56 188.078 115.449 188.488 115.452V117.397H187.967C187.57 117.373 187.175 117.481 186.846 117.706C186.703 117.836 186.592 117.998 186.523 118.179C186.453 118.36 186.428 118.555 186.447 118.747V121.448H184.629V115.515H186.447V116.632ZM191.944 115.441C192.592 115.408 193.231 115.608 193.746 116.004C194.197 116.383 194.497 116.911 194.591 117.493H192.89C192.85 117.269 192.73 117.067 192.553 116.924C192.366 116.781 192.134 116.708 191.899 116.717C191.733 116.705 191.567 116.752 191.431 116.85C191.378 116.896 191.335 116.954 191.308 117.02C191.28 117.085 191.268 117.156 191.272 117.227C191.272 117.318 191.3 117.406 191.353 117.48C191.405 117.555 191.479 117.611 191.564 117.642C191.861 117.765 192.17 117.858 192.486 117.918C192.864 118.002 193.237 118.111 193.602 118.242C193.895 118.354 194.155 118.539 194.357 118.779C194.581 119.063 194.695 119.418 194.675 119.779C194.681 120.102 194.584 120.418 194.399 120.682C194.197 120.959 193.92 121.173 193.602 121.299C193.21 121.456 192.791 121.532 192.369 121.522C191.687 121.557 191.012 121.37 190.445 120.991C190.203 120.81 190 120.582 189.848 120.321C189.696 120.059 189.599 119.77 189.562 119.47H191.316C191.324 119.586 191.357 119.698 191.413 119.799C191.47 119.9 191.547 119.987 191.64 120.055C191.856 120.198 192.111 120.269 192.369 120.257C192.537 120.269 192.704 120.218 192.837 120.114C192.889 120.066 192.931 120.008 192.958 119.943C192.986 119.877 192.999 119.807 192.996 119.736C193 119.641 192.973 119.548 192.921 119.469C192.869 119.389 192.792 119.329 192.704 119.295C192.396 119.171 192.077 119.076 191.752 119.012C191.384 118.939 191.021 118.84 190.668 118.714C190.384 118.607 190.131 118.43 189.934 118.198C189.716 117.923 189.606 117.576 189.626 117.225C189.619 116.978 189.671 116.732 189.775 116.508C189.881 116.283 190.037 116.087 190.232 115.934C190.728 115.576 191.333 115.402 191.944 115.441ZM198.896 115.441C199.592 115.418 200.274 115.642 200.82 116.074C201.348 116.514 201.696 117.132 201.798 117.812H199.874C199.831 117.578 199.706 117.368 199.523 117.216C199.332 117.07 199.095 116.995 198.854 117.004C198.702 117.001 198.552 117.034 198.415 117.099C198.279 117.165 198.16 117.261 198.067 117.381C197.841 117.701 197.732 118.089 197.759 118.48C197.732 118.871 197.84 119.26 198.067 119.58C198.16 119.701 198.279 119.797 198.415 119.863C198.552 119.929 198.702 119.962 198.854 119.96C199.095 119.969 199.332 119.893 199.523 119.747C199.706 119.596 199.831 119.385 199.874 119.151H201.798C201.696 119.831 201.348 120.448 200.82 120.888C200.274 121.32 199.592 121.545 198.896 121.522C198.358 121.533 197.826 121.406 197.349 121.156C196.902 120.913 196.534 120.546 196.292 120.098C196.028 119.601 195.895 119.044 195.909 118.482C195.895 117.918 196.025 117.36 196.286 116.86C196.528 116.413 196.896 116.047 197.344 115.808C197.822 115.557 198.356 115.431 198.896 115.441ZM205.53 115.441C205.941 115.43 206.347 115.537 206.699 115.749C207.02 115.949 207.272 116.242 207.422 116.589V115.515H209.23V121.448H207.422V120.374C207.272 120.721 207.02 121.014 206.699 121.214C206.347 121.427 205.941 121.534 205.53 121.522C205.066 121.529 204.61 121.402 204.217 121.156C203.818 120.897 203.501 120.53 203.303 120.098C203.07 119.592 202.955 119.039 202.968 118.482C202.954 117.923 203.068 117.368 203.303 116.86C203.502 116.43 203.819 116.066 204.217 115.808C204.61 115.561 205.066 115.434 205.53 115.441ZM206.115 117.036C205.939 117.029 205.765 117.059 205.603 117.125C205.44 117.191 205.294 117.291 205.174 117.419C204.922 117.714 204.794 118.095 204.818 118.482C204.794 118.869 204.922 119.25 205.174 119.545C205.294 119.672 205.44 119.772 205.603 119.838C205.765 119.904 205.939 119.935 206.115 119.928C206.291 119.933 206.465 119.901 206.628 119.833C206.79 119.765 206.936 119.663 207.055 119.534C207.31 119.245 207.441 118.867 207.422 118.482C207.443 118.095 207.312 117.715 207.055 117.424C206.935 117.296 206.789 117.195 206.627 117.129C206.465 117.062 206.29 117.03 206.115 117.036ZM214.779 115.452C215.083 115.438 215.386 115.492 215.666 115.609C215.946 115.727 216.197 115.906 216.4 116.132C216.827 116.659 217.041 117.326 217.002 118.003V121.448H215.185V118.216C215.205 117.877 215.093 117.543 214.871 117.286C214.764 117.174 214.634 117.086 214.49 117.028C214.346 116.97 214.191 116.944 214.037 116.951C213.874 116.943 213.711 116.97 213.56 117.031C213.409 117.091 213.272 117.184 213.16 117.302C212.928 117.581 212.811 117.939 212.835 118.301V121.448H211.015V115.515H212.833V116.6C212.999 116.251 213.263 115.959 213.594 115.76C213.952 115.549 214.363 115.442 214.779 115.452Z" fill="white"/>
<path d="M93.8099 97.9857C94.8381 98.1711 95.7659 98.7188 96.4251 99.5295C97.0782 100.332 97.4262 101.34 97.4075 102.375C97.4393 103.048 97.3196 103.719 97.0563 104.34C96.7938 104.961 96.3952 105.514 95.8894 105.96C94.8772 106.836 93.4102 107.274 91.4881 107.274H83.7572V89.2591H91.335C93.1541 89.2591 94.5531 89.6588 95.532 90.4584C96.5112 91.2579 97.0002 92.3801 96.999 93.8251C97.0414 94.819 96.7295 95.7955 96.1189 96.5809C95.5307 97.2971 94.7164 97.7924 93.8099 97.9857ZM87.3547 96.812H90.5936C91.3284 96.8641 92.0575 96.6514 92.649 96.2123C92.8879 95.9965 93.0751 95.7295 93.1966 95.4314C93.3181 95.1331 93.3707 94.8113 93.3506 94.49C93.3702 94.1677 93.3187 93.845 93.1996 93.545C93.0806 93.2448 92.8969 92.9746 92.6617 92.7535C92.2025 92.3451 91.4966 92.141 90.5441 92.141H87.3547V96.812ZM90.7737 104.339C91.5553 104.391 92.3307 104.17 92.9679 103.714C93.228 103.49 93.4324 103.209 93.5653 102.892C93.6981 102.575 93.7556 102.232 93.7334 101.89C93.7535 101.542 93.6936 101.195 93.5584 100.874C93.4233 100.554 93.2164 100.268 92.9537 100.04C92.318 99.5691 91.5362 99.3386 90.7467 99.3892H87.3547V104.339H90.7737ZM104.807 92.959C106.525 92.959 107.902 93.3928 108.94 94.2603C109.986 95.1431 110.675 96.3767 110.879 97.7305H107.513C107.403 97.0969 107.078 96.5202 106.594 96.0975C106.069 95.6724 105.406 95.4545 104.731 95.4851C104.218 95.4532 103.71 95.6072 103.301 95.9189C103.133 96.063 102.999 96.2436 102.911 96.4469C102.822 96.6502 102.782 96.8711 102.791 97.0926C102.784 97.2705 102.818 97.4476 102.888 97.611C102.959 97.7743 103.065 97.9198 103.199 98.0368C103.499 98.29 103.846 98.4809 104.22 98.5981C104.628 98.7342 105.215 98.8958 105.98 99.0829C106.869 99.2679 107.744 99.5195 108.595 99.8357C109.27 100.101 109.867 100.53 110.332 101.086C110.846 101.742 111.104 102.563 111.059 103.395C111.073 103.962 110.952 104.523 110.705 105.034C110.458 105.544 110.094 105.988 109.642 106.33C108.698 107.077 107.426 107.451 105.827 107.451C103.99 107.451 102.519 107.039 101.413 106.215C100.857 105.791 100.392 105.26 100.046 104.653C99.6991 104.046 99.4789 103.375 99.3978 102.681H102.842C102.872 103.004 102.969 103.317 103.127 103.601C103.286 103.884 103.501 104.131 103.761 104.327C104.364 104.75 105.091 104.961 105.827 104.926C106.335 104.961 106.836 104.802 107.231 104.48C107.39 104.333 107.516 104.153 107.6 103.952C107.683 103.752 107.723 103.536 107.715 103.319C107.721 103.132 107.687 102.947 107.615 102.775C107.542 102.603 107.433 102.449 107.294 102.324C106.991 102.056 106.635 101.856 106.248 101.737C105.832 101.601 105.241 101.439 104.476 101.252C103.606 101.067 102.75 100.824 101.912 100.525C101.259 100.279 100.679 99.8707 100.228 99.3381C99.729 98.6998 99.4795 97.9015 99.5263 97.0926C99.512 96.5201 99.6311 95.952 99.8744 95.4337C100.118 94.9154 100.479 94.4611 100.93 94.1072C101.865 93.3417 103.156 92.959 104.807 92.959ZM120.09 92.959C121.735 92.901 123.347 93.4251 124.644 94.4389C125.877 95.4545 126.691 96.8907 126.928 98.4705H123.124C123.001 97.773 122.63 97.1436 122.078 96.6985C121.486 96.2489 120.756 96.0189 120.012 96.0479C119.561 96.0391 119.114 96.1294 118.702 96.3124C118.289 96.4954 117.922 96.7666 117.626 97.1069C116.988 97.8128 116.669 98.8462 116.669 100.207C116.669 101.568 116.988 102.601 117.626 103.307C117.922 103.648 118.289 103.919 118.702 104.102C119.114 104.285 119.561 104.375 120.012 104.366C120.756 104.395 121.486 104.165 122.078 103.716C122.63 103.271 123.001 102.641 123.124 101.944H126.926C126.689 103.524 125.876 104.96 124.643 105.975C123.346 106.987 121.734 107.51 120.09 107.451C118.81 107.475 117.546 107.173 116.416 106.572C115.355 105.996 114.486 105.122 113.915 104.059C113.296 102.871 112.989 101.545 113.023 100.206C112.99 98.8624 113.297 97.5329 113.915 96.3399C114.481 95.2726 115.352 94.3976 116.416 93.8265C117.548 93.2334 118.812 92.9351 120.09 92.959ZM141.854 102.35C141.861 103.244 141.622 104.122 141.165 104.889C140.675 105.692 139.967 106.338 139.124 106.752C138.099 107.246 136.969 107.486 135.832 107.451C134.66 107.471 133.496 107.25 132.413 106.8C131.456 106.402 130.624 105.755 130.004 104.925C129.393 104.09 129.035 103.099 128.97 102.067H132.797C132.864 102.761 133.176 103.408 133.678 103.891C133.947 104.139 134.262 104.331 134.606 104.456C134.95 104.581 135.315 104.636 135.681 104.619C135.993 104.64 136.307 104.597 136.603 104.494C136.899 104.391 137.171 104.23 137.403 104.019C137.602 103.816 137.759 103.574 137.862 103.309C137.965 103.044 138.013 102.76 138.002 102.475C138.022 101.967 137.848 101.471 137.518 101.085C137.178 100.707 136.76 100.406 136.293 100.204C135.8 99.9831 135.119 99.7279 134.252 99.4388C133.307 99.137 132.386 98.766 131.496 98.3288C130.769 97.9517 130.143 97.4046 129.672 96.734C129.138 95.927 128.875 94.9715 128.92 94.0051C128.89 93.3063 129.026 92.6104 129.316 91.974C129.606 91.3378 130.043 90.7791 130.591 90.3435C131.704 89.4504 133.18 89.0039 135.017 89.0039C136.923 89.0039 138.44 89.4632 139.572 90.3818C140.127 90.8292 140.585 91.3862 140.916 92.0181C141.247 92.65 141.445 93.3432 141.496 94.0548H137.618C137.536 93.4459 137.248 92.8834 136.803 92.46C136.304 92.0226 135.654 91.7982 134.992 91.8348C134.41 91.8075 133.838 91.9935 133.384 92.3579C133.174 92.5487 133.01 92.7845 132.904 93.0476C132.797 93.3107 132.752 93.5944 132.77 93.8776C132.754 94.3598 132.923 94.83 133.243 95.1917C133.579 95.5562 133.987 95.8471 134.442 96.0465C135.087 96.3283 135.747 96.5753 136.419 96.7865C137.38 97.1144 138.322 97.4978 139.239 97.9347C139.979 98.3077 140.616 98.8603 141.088 99.5422C141.632 100.374 141.9 101.355 141.854 102.348V102.35ZM150.86 92.959C152.505 92.901 154.118 93.4251 155.415 94.4389C156.648 95.4545 157.461 96.8907 157.698 98.4705H153.897C153.773 97.773 153.402 97.1436 152.851 96.6985C152.258 96.2489 151.527 96.0189 150.784 96.0479C150.333 96.0391 149.886 96.1294 149.473 96.3124C149.061 96.4954 148.694 96.7666 148.398 97.1069C147.761 97.8128 147.441 98.8462 147.441 100.207C147.441 101.568 147.761 102.601 148.398 103.307C148.694 103.648 149.061 103.919 149.473 104.102C149.886 104.285 150.333 104.375 150.784 104.366C151.527 104.395 152.258 104.165 152.851 103.716C153.402 103.271 153.773 102.641 153.897 101.944H157.698C157.461 103.522 156.647 104.958 155.415 105.972C154.118 106.986 152.505 107.509 150.86 107.451C149.581 107.475 148.316 107.173 147.186 106.572C146.126 105.996 145.256 105.122 144.686 104.059C144.067 102.871 143.759 101.545 143.793 100.206C143.761 98.8624 144.067 97.5329 144.686 96.3399C145.251 95.2726 146.122 94.3976 147.186 93.8265C148.319 93.2334 149.582 92.9351 150.86 92.959ZM165.786 92.959C166.868 92.9284 167.934 93.2217 168.848 93.801C169.682 94.3416 170.318 95.1386 170.659 96.072V93.1376H174.232V107.274H170.659V104.314C170.316 105.249 169.681 106.05 168.848 106.598C167.937 107.184 166.87 107.482 165.786 107.451C164.655 107.467 163.541 107.167 162.572 106.583C161.598 105.982 160.822 105.108 160.339 104.07C159.779 102.86 159.504 101.537 159.535 100.204C159.504 98.8712 159.779 97.5486 160.339 96.3385C160.822 95.3007 161.598 94.4269 162.572 93.8251C163.541 93.2425 164.655 92.9425 165.786 92.959ZM166.909 96.0975C166.406 96.0764 165.904 96.1636 165.438 96.3531C164.971 96.5427 164.55 96.8302 164.204 97.1962C163.524 97.9285 163.184 98.9327 163.184 100.209C163.184 101.484 163.524 102.484 164.204 103.207C164.553 103.569 164.974 103.853 165.44 104.04C165.906 104.227 166.407 104.313 166.909 104.291C167.41 104.307 167.91 104.216 168.374 104.024C168.838 103.833 169.257 103.546 169.602 103.181C170.335 102.37 170.716 101.301 170.661 100.209C170.719 99.1084 170.338 98.0302 169.602 97.2103C169.257 96.8453 168.839 96.5575 168.375 96.3656C167.911 96.1738 167.411 96.0825 166.909 96.0975ZM185.917 92.9334C186.646 92.9008 187.372 93.0278 188.047 93.3055C188.721 93.5832 189.326 94.0048 189.821 94.541C190.79 95.6127 191.274 97.1182 191.274 99.0574V107.274H187.702V99.4657C187.702 98.343 187.413 97.4712 186.835 96.8502C186.528 96.5346 186.157 96.2882 185.748 96.1275C185.338 95.9669 184.899 95.8958 184.46 95.9189C184.004 95.8989 183.549 95.9775 183.127 96.1492C182.704 96.3209 182.323 96.5818 182.011 96.914C181.398 97.5775 181.092 98.5301 181.092 99.7719V107.274H177.497V93.1376H181.095V95.9685C181.449 95.0407 182.099 94.2558 182.945 93.7358C183.839 93.1905 184.871 92.9121 185.918 92.9334H185.917Z" fill="white"/>
</g>
</g>
<defs>
<clipPath id="clip0_3587_20">
<rect width="250" height="212" fill="white"/>
</clipPath>
<clipPath id="clip1_3587_20">
<rect width="184" height="43" fill="white" transform="translate(33 84)"/>
</clipPath>
</defs>
</svg>
