<?xml version="1.0" encoding="UTF-8"?><svg xmlns="http://www.w3.org/2000/svg" xmlns:xlink="http://www.w3.org/1999/xlink" height="270.5" preserveAspectRatio="xMidYMid meet" version="1.0" viewBox="-11.8 0.0 264.5 270.5" width="264.5" zoomAndPan="magnify"><defs><clipPath id="a"><path d="M 0 5 L 252.109375 5 L 252.109375 270.53125 L 0 270.53125 Z M 0 5"/></clipPath><clipPath id="b"><path d="M 0 5 L 252.109375 5 L 252.109375 266 L 0 266 Z M 0 5"/></clipPath><clipPath id="c"><path d="M 0 5 L 252.109375 5 L 252.109375 266 L 0 266 Z M 0 5"/></clipPath><clipPath id="d"><path d="M 190 110 L 252.109375 110 L 252.109375 233 L 190 233 Z M 190 110"/></clipPath></defs><g><g id="change1_2"><path d="M 6.457031 152.851562 C 6.3125 150.585938 6.351562 148.308594 6.601562 146.054688 C 6.894531 143.425781 7.59375 140.871094 8.492188 138.386719 C 10.355469 133.234375 13.078125 128.441406 15.878906 123.753906 C 17.316406 121.351562 18.824219 119.007812 20.34375 116.65625 L 6.457031 152.851562" fill="#ff6915"/></g><g clip-path="url(#a)" id="change2_1"><path d="M 141.261719 5.113281 C 97.800781 11.023438 92.199219 55.828125 107.167969 76.421875 C 122.136719 97.015625 122.957031 117.050781 100.65625 122.191406 C 78.351562 127.335938 56.167969 99.714844 81.035156 75.183594 C 50.480469 84.410156 52.261719 110.625 60.042969 124.421875 C 67.824219 138.21875 62.832031 153.109375 49.738281 150.375 C 36.644531 147.640625 37.324219 132.886719 46.472656 122.808594 C 20.996094 131.953125 24.398438 153.808594 36.644531 169.574219 C 48.890625 185.34375 49.949219 205.78125 35.117188 211.015625 C 20.292969 216.253906 5.652344 204.324219 12.078125 190.863281 C -4.324219 199.285156 -6.210938 238.617188 20.222656 248.523438 C 20.222656 248.523438 11.949219 251.109375 3.714844 242.972656 C 9.03125 259.035156 56.316406 288.136719 94.980469 235.742188 C 100.570312 245.652344 121.324219 261.730469 145.945312 237.5625 C 145.945312 237.5625 186.804688 292.207031 229.15625 260.789062 C 248.90625 246.140625 238.113281 218.9375 246.722656 206.183594 C 255.335938 193.425781 253.773438 181.390625 240.886719 170.367188 C 250.441406 198.40625 204.664062 218.363281 193.9375 192.515625 C 183.210938 166.664062 229.753906 146.683594 198.90625 110.714844 C 216.140625 143.765625 177.679688 157.019531 166.242188 135.078125 C 154.179688 111.945312 190.332031 98.105469 154.3125 66.621094 C 136.644531 51.179688 119.769531 29.839844 141.261719 5.113281" fill="#ffab17"/></g><g id="change2_2"><path d="M 231.640625 121.53125 C 204.542969 149.085938 232.433594 177.996094 220.132812 188.023438 C 250.871094 175.445312 224.476562 132.59375 231.640625 121.53125" fill="#ffab17"/></g><g id="change2_3"><path d="M 166.371094 0.00390625 C 145.222656 12.210938 135.785156 48.308594 171.914062 67.3125 C 171.914062 67.3125 178.109375 52.523438 166.488281 36.054688 C 152.632812 16.414062 166.371094 0.00390625 166.371094 0.00390625" fill="#ffab17"/></g><g id="change2_4"><path d="M 22.035156 176.066406 C 6.425781 160.9375 6.464844 126.824219 37.09375 108.707031 C 1.304688 115.457031 -11.785156 155.273438 22.035156 176.066406" fill="#ffab17"/></g><g id="change2_5"><path d="M 94.589844 25.386719 C 79.917969 32.632812 68.816406 53.824219 87.023438 72.671875 C 100.496094 56.355469 83.304688 42.089844 94.589844 25.386719" fill="#ffab17"/></g><g id="change2_6"><path d="M 175.785156 81.628906 C 182.316406 92.4375 177.277344 102.628906 172.992188 116.347656 C 167.199219 134.90625 185.238281 142.03125 193.109375 134.09375 C 198.617188 128.539062 196.914062 118.351562 196.914062 118.351562 C 196.914062 118.351562 188.511719 125.691406 184.992188 118.125 C 180.878906 109.273438 192.390625 97.398438 175.785156 81.628906" fill="#ffab17"/></g><g id="change3_1"><path d="M 149.808594 232.765625 C 149.664062 232.296875 150.300781 231.945312 150.664062 232.207031 C 153.144531 234.007812 155.617188 235.824219 158.164062 237.527344 C 165.808594 242.625 175.132812 246.84375 184.429688 245.339844 C 182.746094 244.917969 181.097656 244.371094 179.503906 243.671875 C 169.949219 239.457031 162.742188 231.453125 156.910156 223.003906 C 156.511719 222.417969 157.144531 221.558594 157.792969 222.03125 C 160.859375 224.261719 164.191406 226.109375 167.671875 227.609375 C 165.277344 225.570312 163.035156 223.351562 161.042969 220.914062 C 155.714844 214.402344 152.023438 206.46875 151.382812 198.019531 C 150.957031 192.453125 151.742188 186.789062 153.804688 181.636719 C 153.546875 182.039062 153.28125 182.433594 153.039062 182.847656 C 146.808594 193.402344 145.304688 206.875 149.363281 218.484375 C 149.628906 219.238281 148.863281 220.113281 148.097656 219.566406 C 145.796875 217.921875 143.699219 215.984375 141.882812 213.808594 C 136.425781 207.261719 133.429688 198.648438 133.820312 190.132812 C 133.097656 191.875 132.53125 193.683594 132.195312 195.542969 C 131.597656 198.851562 131.765625 202.050781 132.386719 205.339844 C 132.910156 208.125 133.328125 210.917969 132.46875 213.6875 C 131.839844 215.730469 130.511719 217.535156 128.855469 218.875 C 125.269531 221.773438 120.40625 222.707031 116.007812 221.386719 C 111.265625 219.960938 106.835938 216.347656 104.195312 212.179688 C 101.582031 208.054688 99.957031 203.417969 98.457031 198.785156 C 95.71875 207.867188 96.53125 217.886719 100.582031 226.464844 C 100.992188 227.335938 99.792969 228.136719 99.171875 227.390625 C 94.320312 221.558594 89.175781 215.457031 82.449219 211.792969 C 83.746094 213.578125 84.824219 215.507812 85.300781 217.683594 C 86.652344 223.847656 83.179688 229.5 78.414062 233.132812 C 73.835938 236.625 68.121094 238.621094 62.394531 239.257812 C 63.855469 240.667969 65.464844 241.917969 67.191406 242.992188 C 72.394531 246.230469 78.773438 247.761719 84.972656 247.375 C 88.347656 244.042969 91.695312 240.191406 94.980469 235.742188 C 100.566406 245.65625 121.324219 261.730469 145.945312 237.5625 C 145.945312 237.5625 150.726562 243.953125 158.707031 251.105469 C 154.8125 245.535156 151.816406 239.339844 149.808594 232.765625" fill="#ffcb39"/></g><g id="change3_2"><path d="M 229.324219 175.457031 C 229.765625 173 229.921875 170.496094 229.378906 168.039062 C 228.996094 166.3125 228.328125 164.644531 227.449219 163.105469 C 227.503906 164.648438 227.550781 166.195312 227.554688 167.742188 C 227.550781 169.75 227.589844 171.8125 227.164062 173.777344 C 226.484375 176.914062 225.289062 180 223.242188 182.488281 C 222.863281 184.691406 221.925781 186.558594 220.132812 188.023438 C 222.492188 187.054688 224.511719 185.910156 226.238281 184.617188 C 226.59375 183.929688 226.929688 183.230469 227.226562 182.511719 C 228.179688 180.21875 228.882812 177.90625 229.324219 175.457031" fill="#ffcb39"/></g><g id="change3_3"><path d="M 160.617188 44.882812 C 160.542969 45.652344 160.695312 47.890625 160.714844 48.164062 C 160.808594 49.328125 160.96875 50.480469 161.195312 51.625 C 161.652344 53.949219 162.371094 56.214844 163.332031 58.378906 C 164.238281 60.429688 165.359375 62.378906 166.660156 64.199219 C 168.113281 65.152344 169.65625 66.082031 171.300781 66.96875 C 171.492188 63.097656 170.496094 59.183594 168.796875 55.714844 C 166.804688 51.664062 163.71875 48.136719 160.617188 44.882812" fill="#ffcb39"/></g><g id="change3_4"><path d="M 3.554688 153.039062 C 3.25 151.019531 3.070312 148.90625 3.246094 146.867188 C 3.433594 144.738281 4.433594 142.601562 5.242188 140.648438 C 5.648438 139.65625 5.996094 138.621094 6.46875 137.660156 C 6.972656 136.621094 7.550781 135.609375 8.101562 134.59375 C 9.207031 132.5625 10.34375 130.550781 11.488281 128.539062 C 12.597656 126.589844 13.757812 124.65625 14.796875 122.671875 C 15.355469 121.605469 15.960938 120.578125 16.574219 119.546875 C 17.113281 118.644531 17.753906 117.714844 18.03125 116.695312 C 5.53125 125.667969 -0.230469 140.035156 3.632812 153.601562 C 3.605469 153.414062 3.582031 153.226562 3.554688 153.039062" fill="#ffcb39"/></g><g id="change3_5"><path d="M 88.476562 62.890625 C 87.785156 60.621094 86.636719 58.488281 85.144531 56.648438 C 84.476562 55.820312 83.589844 54.980469 83.046875 54.027344 C 82.03125 59.046875 82.300781 64.335938 83.976562 69.152344 C 84.882812 70.328125 85.894531 71.507812 87.023438 72.671875 C 87.910156 71.59375 88.65625 70.527344 89.296875 69.46875 C 89.472656 67.238281 89.082031 64.882812 88.476562 62.890625" fill="#ffcb39"/></g><g id="change3_6"><path d="M 185.089844 101.851562 C 184.550781 104.855469 183.789062 107.835938 183.378906 110.855469 C 182.835938 114.828125 182.449219 119.398438 184.484375 123.039062 C 185.351562 124.589844 186.351562 125.882812 187.921875 126.789062 C 189.492188 127.703125 191.351562 128.03125 193.074219 127.367188 C 195.152344 126.566406 196.4375 124.988281 197.136719 123.113281 C 197.25 120.378906 196.914062 118.351562 196.914062 118.351562 C 196.914062 118.351562 188.511719 125.691406 184.992188 118.121094 C 182.867188 113.550781 184.910156 108.164062 185.089844 101.851562" fill="#ffcb39"/></g><g clip-path="url(#b)" id="change1_1"><path d="M 36.652344 249.300781 C 36.199219 249.136719 36.238281 248.433594 36.726562 248.351562 C 40.472656 247.71875 44.214844 247.082031 47.960938 246.441406 C 36.53125 243.082031 26.136719 236.445312 18.878906 226.90625 C 18.546875 226.46875 19.082031 225.78125 19.550781 226.160156 C 24.40625 230.054688 30.445312 232.070312 36.628906 232.398438 C 47.730469 232.992188 59.792969 228.367188 66.585938 219.328125 C 68.84375 216.320312 70.726562 212.992188 71.804688 209.375 C 72.878906 205.78125 72.828125 202.226562 71.941406 198.601562 C 70.273438 191.75 66.113281 185.804688 62.042969 180.171875 C 61.753906 179.773438 62.109375 178.984375 62.664062 179.269531 C 72.332031 184.246094 83.28125 190.59375 87.125 201.351562 C 88.269531 197.535156 87.828125 193.535156 86.453125 189.753906 C 83.714844 182.222656 78.105469 176.277344 74.378906 169.269531 C 71 162.925781 68.671875 155.304688 72.035156 148.464844 C 72.304688 147.921875 73.167969 148.027344 73.125 148.699219 C 72.851562 152.9375 74.894531 156.832031 77.707031 159.878906 C 80.394531 162.789062 83.761719 165.0625 87.050781 167.230469 C 90.304688 169.378906 93.472656 171.601562 96.367188 174.222656 C 101.296875 178.683594 105.070312 184.34375 107.195312 190.640625 C 108.984375 184.613281 107.632812 178.011719 103.8125 172.976562 C 103.304688 172.3125 104.242188 171.492188 104.800781 172.128906 C 110.449219 178.550781 120.308594 180 127.796875 176.144531 C 131.109375 174.441406 133.925781 171.875 136.222656 168.964844 C 138.675781 165.859375 141.128906 161.964844 141.214844 157.882812 C 141.355469 151.429688 136.382812 146.863281 133.121094 141.835938 C 131.59375 139.480469 130.367188 136.878906 130.257812 134.03125 C 130.117188 130.355469 132.667969 127.355469 134.371094 124.320312 C 138.175781 117.53125 143.167969 108.730469 140.0625 100.773438 C 139.847656 100.222656 140.472656 99.5 141.023438 99.949219 C 144.035156 102.398438 145.230469 106.097656 145.460938 109.867188 C 145.570312 111.675781 145.484375 113.488281 145.277344 115.28125 C 145.019531 117.476562 144.390625 119.53125 143.746094 121.640625 C 142.351562 126.179688 140.621094 131.15625 141.570312 135.957031 C 143.011719 143.285156 149.722656 149.34375 157.257812 149.5 C 158.113281 149.515625 158.011719 150.644531 157.335938 150.867188 C 153.703125 152.054688 149.882812 151.945312 146.167969 151.273438 C 148.589844 157.09375 153.722656 161.550781 159.609375 163.710938 C 163.128906 164.996094 167.242188 164.898438 170.898438 164.335938 C 174.726562 163.746094 178.410156 162.496094 181.898438 160.820312 C 182.320312 160.621094 182.804688 160.878906 182.90625 161.324219 C 184.414062 168.0625 176.832031 172.027344 173.03125 176.179688 C 165.414062 184.5 163.390625 197.769531 168.398438 207.914062 C 173.421875 218.082031 184.867188 224.535156 196.132812 223.953125 C 196.988281 223.910156 196.945312 225.050781 196.40625 225.402344 C 191.613281 228.519531 185.941406 230.027344 180.300781 229.441406 C 182.425781 231.011719 184.714844 232.347656 187.140625 233.414062 C 198.570312 238.441406 212.792969 237.972656 223.171875 230.679688 C 223.734375 230.285156 224.582031 230.75 224.324219 231.476562 C 223.089844 234.96875 221.214844 238.21875 218.789062 241.015625 C 210.183594 250.925781 195.613281 254.15625 183.796875 248.730469 C 185.097656 250.574219 186.894531 251.960938 189.199219 252.574219 C 190.144531 252.828125 189.710938 254.140625 188.863281 254.144531 C 178.914062 254.207031 168.941406 250.800781 161.359375 244.394531 C 165.054688 249.617188 169.8125 254.0625 175.257812 257.464844 C 181.871094 261.59375 189.480469 264.15625 197.277344 264.621094 C 205.136719 265.089844 212.921875 263.265625 219.820312 259.492188 C 229.980469 253.9375 238.121094 244.417969 242.054688 233.464844 C 242.988281 223 242.320312 212.703125 246.722656 206.183594 C 255.335938 193.425781 253.773438 181.390625 240.886719 170.367188 C 250.441406 198.40625 204.664062 218.363281 193.9375 192.515625 C 183.210938 166.664062 229.753906 146.683594 198.90625 110.714844 C 216.136719 143.765625 177.679688 157.019531 166.242188 135.082031 C 154.179688 111.945312 190.332031 98.101562 154.3125 66.621094 C 136.644531 51.179688 119.769531 29.839844 141.261719 5.109375 C 97.800781 11.023438 92.199219 55.828125 107.167969 76.421875 C 122.136719 97.015625 122.957031 117.050781 100.65625 122.191406 C 78.351562 127.335938 56.167969 99.71875 81.035156 75.183594 C 50.480469 84.410156 52.261719 110.628906 60.042969 124.421875 C 67.824219 138.21875 62.832031 153.109375 49.738281 150.375 C 36.644531 147.640625 37.324219 132.886719 46.472656 122.808594 C 20.996094 131.953125 24.398438 153.808594 36.644531 169.574219 C 48.890625 185.34375 49.949219 205.78125 35.117188 211.019531 C 20.292969 216.257812 5.652344 204.324219 12.078125 190.863281 C -4.324219 199.285156 -6.210938 238.617188 20.222656 248.527344 C 20.222656 248.527344 11.949219 251.113281 3.714844 242.972656 C 8.367188 257.019531 45.113281 281.039062 80.125 251.796875 C 65.777344 255.382812 50.617188 254.300781 36.652344 249.300781" fill="#ff6915"/></g><g id="change1_3"><path d="M 226.90625 142.472656 C 227.257812 141.851562 227.96875 142.324219 227.78125 142.792969 C 226.070312 147.015625 227.648438 151.421875 229.21875 155.425781 C 229.890625 157.132812 230.695312 158.785156 231.261719 160.53125 C 231.796875 162.175781 232.046875 163.914062 232.300781 165.617188 C 232.789062 168.863281 232.496094 172.1875 231.585938 175.335938 C 230.671875 178.507812 229.074219 181.511719 226.949219 184.054688 C 246.492188 168.175781 225.105469 131.625 231.644531 121.53125 C 211.90625 141.597656 221.335938 162.382812 223.164062 176.066406 C 225.0625 164.921875 220.984375 152.730469 226.90625 142.472656" fill="#ff6915"/></g><g id="change1_4"><path d="M 166.488281 36.054688 C 152.632812 16.414062 166.371094 0.00390625 166.371094 0.00390625 C 148.183594 10.503906 138.6875 38.652344 159.347656 58.421875 C 155.34375 49.589844 155.929688 39.199219 156.625 29.613281 C 156.667969 29.015625 157.589844 29.085938 157.550781 29.6875 C 157.367188 32.757812 158.59375 35.703125 160.433594 38.113281 C 161.273438 39.214844 162.351562 40.097656 163.34375 41.058594 C 164.371094 42.050781 165.371094 43.070312 166.304688 44.148438 C 168.042969 46.15625 169.632812 48.390625 170.796875 50.777344 C 172.269531 53.804688 173.117188 57.210938 173.054688 60.589844 C 173.101562 61.15625 173.144531 61.726562 173.179688 62.296875 C 174.066406 56.585938 173.980469 46.671875 166.488281 36.054688" fill="#ff6915"/></g><g id="change1_5"><path d="M 37.097656 108.707031 C 32.277344 109.617188 27.882812 111.140625 23.945312 113.121094 C 21.261719 117.292969 18.53125 121.429688 16.011719 125.703125 C 13.285156 130.328125 10.707031 135.09375 9.042969 140.222656 C 7.550781 144.820312 7.167969 149.621094 7.679688 154.425781 C 8.144531 158.808594 9.34375 163.097656 11.175781 167.085938 C 14.042969 170.324219 17.636719 173.359375 22.039062 176.066406 C 6.425781 160.9375 6.464844 126.824219 37.097656 108.707031" fill="#ff6915"/></g><g id="change1_6"><path d="M 83.144531 42.765625 C 83.378906 42.488281 83.945312 42.5 83.992188 42.941406 C 84.316406 46.046875 86.015625 48.75 87.269531 51.539062 C 87.804688 52.742188 88.59375 53.792969 89.226562 54.953125 C 89.855469 56.113281 90.386719 57.320312 90.804688 58.570312 C 91.386719 60.316406 91.636719 62.058594 91.710938 63.84375 C 95.128906 51.023438 85.378906 39.015625 94.589844 25.386719 C 84.3125 30.464844 75.796875 42.386719 77.875 55.554688 C 78.304688 50.902344 80.09375 46.390625 83.144531 42.765625" fill="#ff6915"/></g><g id="change1_7"><path d="M 190.960938 134.5625 C 188.800781 134.316406 186.5625 133.460938 184.644531 132.46875 C 182.65625 131.445312 180.796875 130.054688 179.503906 128.203125 C 176.679688 124.167969 177.515625 118.839844 178.792969 114.386719 C 179.652344 111.394531 180.65625 108.445312 181.546875 105.460938 C 182.386719 102.632812 183.210938 99.777344 183.304688 96.816406 C 183.367188 94.9375 183.289062 93.023438 182.976562 91.167969 C 181.566406 88.15625 179.316406 84.984375 175.789062 81.628906 C 182.316406 92.4375 177.277344 102.628906 172.992188 116.347656 C 167.328125 134.492188 184.4375 141.699219 192.5625 134.59375 C 192.023438 134.636719 191.476562 134.621094 190.960938 134.5625" fill="#ff6915"/></g><g clip-path="url(#c)" id="change4_1"><path d="M 240.886719 170.367188 C 250.441406 198.40625 204.664062 218.363281 193.9375 192.515625 C 183.210938 166.664062 229.753906 146.683594 198.90625 110.714844 C 216.136719 143.765625 177.679688 157.019531 166.242188 135.078125 C 154.179688 111.945312 190.328125 98.105469 154.3125 66.621094 C 136.644531 51.179688 119.769531 29.839844 141.261719 5.113281 C 97.800781 11.023438 92.199219 55.828125 107.167969 76.421875 C 122.136719 97.015625 122.957031 117.050781 100.65625 122.191406 C 78.351562 127.335938 56.167969 99.714844 81.035156 75.183594 C 50.480469 84.410156 52.261719 110.625 60.042969 124.421875 C 67.824219 138.21875 62.832031 153.109375 49.738281 150.375 C 36.644531 147.640625 37.324219 132.886719 46.472656 122.808594 C 20.996094 131.953125 24.398438 153.808594 36.644531 169.574219 C 48.890625 185.34375 49.949219 205.78125 35.117188 211.019531 C 20.292969 216.253906 5.652344 204.328125 12.078125 190.863281 C -4.324219 199.285156 -6.210938 238.617188 20.222656 248.523438 C 20.222656 248.523438 11.949219 251.109375 3.714844 242.972656 C 7.152344 253.355469 28.125 269.179688 52.96875 264.925781 C 42.433594 264.945312 31.898438 262.382812 22.503906 257.59375 C 22.011719 257.347656 22.097656 256.554688 22.71875 256.597656 C 28.195312 256.992188 33.621094 256.554688 38.910156 255.199219 C 32.308594 254.21875 26.339844 250.664062 22.109375 245.433594 C 21.832031 245.089844 22.085938 244.542969 22.546875 244.578125 C 23.105469 244.621094 23.664062 244.664062 24.226562 244.707031 C 13.730469 237.335938 6.347656 225.652344 4.464844 212.941406 C 4.402344 212.515625 4.894531 212.117188 5.273438 212.414062 C 11.113281 216.945312 17.976562 220.359375 25.335938 221.460938 C 36.804688 223.175781 49.847656 217.441406 53.9375 206.070312 C 58.757812 192.679688 51.652344 179.097656 45.367188 167.523438 C 45.113281 167.058594 45.644531 166.441406 46.140625 166.664062 C 53.78125 170.074219 61.523438 173.257812 69.207031 176.566406 C 64.050781 171.847656 59.628906 166.417969 56.097656 160.34375 C 55.875 159.957031 56.253906 159.371094 56.707031 159.449219 C 60.308594 160.085938 63.632812 158.308594 65.882812 155.554688 C 70.765625 149.574219 69.476562 141.832031 67.796875 134.910156 C 66.089844 127.894531 63.910156 120.089844 66.613281 113.042969 C 66.851562 112.417969 67.761719 112.632812 67.738281 113.285156 C 67.582031 117.675781 68.441406 122.070312 70.140625 126.117188 C 71.640625 129.683594 73.765625 132.972656 76.414062 135.796875 C 79.054688 138.617188 82.199219 140.765625 85.582031 142.601562 C 91.109375 145.613281 97.214844 147.992188 101.804688 152.347656 C 99.910156 147.679688 96.96875 143.445312 93.117188 140.183594 C 92.664062 139.800781 92.820312 138.796875 93.554688 138.941406 C 98.125 139.84375 102.316406 141.984375 105.734375 145.152344 C 107.253906 146.5625 108.585938 148.152344 109.71875 149.890625 C 110.796875 151.546875 111.757812 153.308594 113.089844 154.785156 C 114.367188 156.207031 116.386719 157.433594 118.304688 156.410156 C 120.050781 155.476562 120.621094 153.0625 120.652344 151.25 C 120.691406 148.714844 119.773438 146.28125 119.199219 143.847656 C 118.648438 141.519531 118.378906 139.125 118.378906 136.734375 C 118.382812 131.855469 119.621094 127.058594 121.820312 122.714844 C 122.128906 122.105469 123.109375 122.210938 123.054688 122.976562 C 122.609375 129.171875 123.402344 135.429688 125.328125 141.328125 C 125.683594 136.132812 126.910156 131.03125 128.285156 126.011719 C 129.785156 120.511719 131.496094 115.019531 132.277344 109.355469 C 132.960938 104.417969 132.851562 99.351562 132.113281 94.433594 C 130.617188 84.472656 126.429688 75 120.015625 67.230469 C 119.574219 66.695312 120.117188 65.90625 120.777344 66.128906 C 128.464844 68.738281 134.761719 74.949219 137.871094 82.425781 C 137.945312 77.800781 136.984375 73.191406 135.023438 68.984375 C 134.664062 68.214844 135.65625 67.636719 136.214844 68.199219 C 139.347656 71.363281 142.757812 74.378906 146.128906 77.277344 C 149.046875 79.789062 152.054688 82.625 153.917969 86.039062 C 156.789062 91.308594 156.671875 97.804688 155.832031 103.558594 C 154.921875 109.789062 153.105469 115.847656 152.289062 122.097656 C 151.496094 128.140625 151.796875 134.628906 155.136719 139.929688 C 158.480469 145.238281 164.417969 148.652344 170.570312 149.464844 C 171.277344 149.554688 171.515625 150.359375 171.027344 150.851562 C 169.617188 152.269531 168.019531 153.53125 166.238281 154.417969 C 176.257812 155.339844 186.648438 152.683594 194.648438 146.496094 C 195.089844 146.152344 195.980469 146.4375 195.84375 147.101562 C 194.4375 153.855469 191.628906 160.054688 188.882812 166.339844 C 186.46875 171.863281 184.195312 177.632812 183.53125 183.667969 C 182.910156 189.34375 184.132812 194.953125 186.816406 199.980469 C 189.523438 205.054688 193.652344 209.226562 198.863281 211.710938 C 204.425781 214.363281 210.695312 215.15625 216.710938 213.769531 C 217.308594 213.628906 217.769531 214.257812 217.59375 214.800781 C 216.363281 218.597656 213.566406 221.648438 209.964844 223.160156 C 216.460938 223.9375 222.535156 218.535156 226.4375 213.820312 C 230.753906 208.609375 234.585938 202.734375 240.914062 199.777344 C 241.65625 199.429688 242.210938 200.386719 241.667969 200.929688 C 238.546875 204.03125 237.09375 208.210938 236.351562 212.46875 C 235.0625 219.890625 235.421875 228.113281 231.800781 234.925781 C 229.054688 240.089844 224.683594 243.921875 219.839844 247.042969 C 226.433594 244.480469 232.125 239.703125 235.410156 233.347656 C 235.8125 232.566406 237.023438 233.113281 236.957031 233.894531 C 236.621094 237.863281 235.144531 241.625 232.871094 244.886719 C 223.695312 258.042969 206.695312 260.332031 191.800781 261.457031 C 196.945312 264.515625 203.417969 265.011719 209.089844 263.046875 C 209.492188 262.90625 209.84375 263.078125 210.0625 263.34375 C 213.441406 262.464844 216.722656 261.1875 219.820312 259.496094 C 229.980469 253.941406 238.121094 244.417969 242.054688 233.464844 C 242.988281 223 242.320312 212.703125 246.722656 206.183594 C 255.335938 193.425781 253.773438 181.390625 240.886719 170.367188" fill="#fc5d0d"/></g><g id="change4_2"><path d="M 220.332031 148.910156 C 220.746094 147.351562 221.207031 145.800781 221.757812 144.28125 C 222.296875 142.789062 222.875 141.183594 223.753906 139.855469 C 224.753906 138.339844 225.898438 136.882812 226.785156 135.300781 C 227.285156 134.40625 228 133.460938 229.136719 133.78125 C 229.289062 133.824219 229.4375 134.023438 229.445312 134.183594 C 229.585938 138.84375 230.265625 143.476562 231.671875 147.929688 C 232.664062 151.074219 233.957031 154.113281 235.074219 157.21875 C 233.609375 142.5625 227.796875 127.46875 231.640625 121.53125 C 221.207031 132.140625 218.929688 142.949219 219.363281 152.804688 C 219.667969 151.5 219.988281 150.203125 220.332031 148.910156" fill="#fc5d0d"/></g><g id="change4_3"><path d="M 149.78125 39.691406 C 149.835938 36.261719 150.644531 32.921875 151.589844 29.640625 C 152.554688 26.28125 153.785156 23.003906 155.328125 19.867188 C 155.488281 19.546875 156.011719 19.417969 156.175781 19.824219 C 157.835938 23.867188 159.074219 28.082031 161.636719 31.675781 C 164.367188 35.511719 167.597656 38.996094 170.359375 42.804688 C 169.367188 40.609375 168.109375 38.351562 166.488281 36.054688 C 152.632812 16.414062 166.371094 0.00390625 166.371094 0.00390625 C 151.953125 8.324219 143.019531 27.734375 150.214844 45.273438 C 149.910156 43.425781 149.753906 41.558594 149.78125 39.691406" fill="#fc5d0d"/></g><g id="change4_4"><path d="M 37.097656 108.707031 C 33.089844 109.460938 29.394531 110.664062 25.992188 112.179688 C 25.816406 113.035156 25.472656 113.882812 25.039062 114.691406 C 23.761719 117.074219 22.039062 119.253906 20.394531 121.390625 C 18.871094 123.371094 17.320312 125.34375 15.929688 127.425781 C 15.246094 128.449219 14.597656 129.503906 14.023438 130.59375 C 13.394531 131.792969 13.011719 133.058594 12.589844 134.339844 C 10.851562 139.59375 9.796875 145.015625 9.511719 150.550781 C 9.445312 151.84375 9.421875 153.144531 9.4375 154.441406 C 9.457031 155.710938 9.378906 156.984375 9.492188 158.25 C 9.714844 160.765625 10.59375 163.15625 11.648438 165.433594 C 12.332031 166.902344 13.058594 168.351562 13.804688 169.792969 C 16.15625 172.019531 18.886719 174.125 22.039062 176.066406 C 6.425781 160.9375 6.464844 126.824219 37.097656 108.707031" fill="#fc5d0d"/></g><g id="change4_5"><path d="M 86.777344 35.386719 C 87.058594 35.183594 87.539062 35.347656 87.488281 35.746094 C 87.066406 38.980469 87.546875 42.214844 88.40625 45.339844 C 89.191406 48.195312 90.25 51 91.410156 53.726562 C 91.71875 54.453125 92.066406 55.15625 92.414062 55.867188 C 91.871094 45.917969 87.3125 36.160156 94.589844 25.386719 C 87.363281 28.953125 81.027344 35.917969 78.613281 44.3125 C 80.71875 40.84375 83.488281 37.777344 86.777344 35.386719" fill="#fc5d0d"/></g><g id="change4_6"><path d="M 183.355469 136.234375 C 182.324219 135.644531 181.382812 134.914062 180.511719 134.105469 C 178.972656 132.675781 177.660156 130.949219 176.761719 129.042969 C 175.832031 127.070312 175.441406 124.816406 175.304688 122.652344 C 175.011719 118.011719 176.152344 113.472656 177.453125 109.054688 C 179.460938 102.226562 182.742188 93.792969 180.296875 86.695312 C 179.09375 85.054688 177.613281 83.367188 175.789062 81.628906 C 182.320312 92.4375 177.277344 102.628906 172.992188 116.347656 C 168.621094 130.355469 177.820312 137.835938 185.980469 137.253906 C 185.070312 137.007812 184.160156 136.695312 183.355469 136.234375" fill="#fc5d0d"/></g><g id="change5_2"><path d="M 18.355469 247.734375 C 17.585938 247.230469 16.820312 246.726562 16.066406 246.199219 C 12.484375 243.703125 9.269531 240.804688 6.84375 237.152344 C 4.578125 233.746094 2.992188 229.910156 2.148438 225.914062 C 0.273438 217.03125 2.304688 208.019531 6.722656 200.210938 C 6.945312 199.820312 7.664062 199.964844 7.703125 200.417969 C 7.96875 203.460938 9.171875 206.308594 11.160156 208.632812 C 13.242188 211.0625 16.105469 212.917969 18.957031 214.316406 C 23.882812 216.730469 29.347656 218.148438 34.722656 216.449219 C 39.15625 215.050781 43.015625 211.917969 45.484375 208 C 49.796875 201.160156 48.796875 192.472656 44.847656 185.671875 C 47.902344 196.972656 45.148438 207.476562 35.117188 211.019531 C 20.292969 216.257812 5.652344 204.324219 12.078125 190.863281 C -3.925781 199.078125 -6.097656 236.703125 18.355469 247.734375" fill="#f9320b"/></g><g id="change5_3"><path d="M 30.695312 155.105469 C 30.242188 151.996094 30.203125 148.8125 30.714844 145.707031 C 31.230469 142.550781 32.300781 139.558594 33.582031 136.636719 C 33.820312 136.097656 34.578125 136.269531 34.578125 136.851562 C 34.574219 141.847656 35.136719 147.222656 38.058594 151.429688 C 39.9375 154.132812 42.539062 156.253906 45.359375 157.972656 C 43.902344 156.046875 42.832031 153.859375 42.097656 151.476562 C 41.917969 150.886719 42.78125 150.542969 43.144531 150.972656 C 44.863281 153.011719 47.378906 154.179688 50.015625 154.414062 C 54.925781 154.859375 59.320312 151.90625 61.457031 147.5625 C 62.070312 146.3125 62.46875 145.011719 62.679688 143.691406 C 60.746094 148.738281 56.242188 151.734375 49.738281 150.375 C 36.644531 147.640625 37.324219 132.886719 46.472656 122.808594 C 23.277344 131.132812 24.023438 149.992188 33.582031 165.203125 C 32.238281 161.957031 31.203125 158.585938 30.695312 155.105469" fill="#f9320b"/></g><g id="change5_4"><path d="M 57.570312 105.527344 C 58.890625 99.992188 61.144531 94.6875 64.277344 89.9375 C 64.550781 89.519531 65.320312 89.75 65.234375 90.273438 C 64.511719 94.652344 64.542969 99.128906 65.34375 103.492188 C 66.757812 111.1875 70.472656 118.292969 76.078125 123.765625 C 79.730469 127.335938 84.121094 130.128906 88.863281 132.019531 C 86.894531 130.535156 85.167969 128.71875 83.75 126.675781 C 83.382812 126.140625 83.816406 125.523438 84.441406 125.671875 C 86.847656 126.246094 89.21875 126.960938 91.519531 127.867188 C 98.230469 130.523438 104.28125 134.675781 109.210938 139.921875 C 108.109375 136.953125 107.5625 133.820312 108.59375 130.695312 C 110.074219 126.207031 113.792969 122.871094 116.46875 119.105469 C 118.925781 115.648438 120.988281 111.773438 121.65625 107.539062 C 122.328125 103.28125 121.386719 99 119.871094 95.015625 C 118.355469 91.027344 116.363281 87.234375 114.570312 83.367188 C 112.714844 79.355469 111.042969 75.265625 109.6875 71.054688 C 107.132812 63.105469 105.769531 54.523438 106.898438 46.191406 C 107.933594 38.527344 111.097656 30.828125 116.667969 25.339844 C 117.046875 24.964844 117.636719 25.441406 117.484375 25.902344 C 114.621094 34.355469 115.285156 43.867188 118.871094 52.015625 C 118.402344 47.082031 118.648438 42.179688 119.605469 37.253906 C 119.730469 36.617188 120.628906 36.492188 120.78125 37.183594 C 121.046875 38.359375 121.328125 39.527344 121.644531 40.6875 C 122.949219 45.464844 124.78125 50.261719 127.886719 54.175781 C 130.488281 57.453125 133.59375 60.136719 137.015625 62.53125 C 143.652344 67.183594 151.230469 70.9375 156.429688 77.339844 C 159.34375 80.925781 161.167969 85.183594 162 89.714844 C 162.925781 94.746094 162.664062 99.878906 162.234375 104.949219 C 161.363281 115.246094 159.21875 126.074219 164.027344 135.777344 C 165.027344 137.804688 166.335938 139.835938 168.03125 141.355469 C 169.628906 142.785156 171.515625 143.878906 173.527344 144.597656 C 175.523438 145.3125 177.664062 145.628906 179.746094 145.445312 C 174.363281 144.339844 169.324219 140.988281 166.242188 135.082031 C 154.179688 111.945312 190.328125 98.101562 154.3125 66.621094 C 136.644531 51.179688 119.769531 29.839844 141.261719 5.113281 C 97.800781 11.023438 92.199219 55.828125 107.167969 76.421875 C 122.136719 97.015625 122.960938 117.050781 100.65625 122.191406 C 78.351562 127.335938 56.167969 99.714844 81.035156 75.183594 C 56.839844 82.492188 52.929688 100.445312 56.210938 114.457031 C 56.359375 111.433594 56.878906 108.410156 57.570312 105.527344" fill="#f9320b"/></g><g clip-path="url(#d)" id="change5_1"><path d="M 199.128906 138.753906 C 201.648438 136.789062 203.734375 134.316406 205.230469 131.425781 C 205.421875 131.046875 205.988281 131.25 206.066406 131.597656 C 207.1875 136.660156 206.128906 141.753906 204.195312 146.480469 C 202.203125 151.363281 199.554688 155.835938 196.921875 160.394531 C 192.402344 168.21875 189.234375 177.738281 190.933594 186.835938 C 191.644531 190.644531 193.09375 194.390625 195.402344 197.523438 C 197.816406 200.800781 201.089844 203.191406 204.933594 204.53125 C 212.835938 207.292969 221.769531 205.695312 229.304688 202.527344 C 236.207031 199.625 242.945312 194.539062 245.714844 187.347656 C 245.90625 186.851562 246.734375 186.714844 246.945312 187.28125 C 247.992188 190.101562 247.726562 193.105469 246.90625 195.949219 C 246.492188 197.371094 245.816406 198.695312 245.171875 200.027344 C 244.503906 201.402344 243.808594 202.765625 243.105469 204.128906 C 241.789062 206.679688 240.703125 209.308594 239.886719 212.0625 C 238.664062 216.160156 238.03125 220.398438 237.769531 224.65625 C 238.21875 223.761719 238.714844 222.882812 239.296875 222.046875 C 239.667969 221.511719 240.484375 221.714844 240.628906 222.324219 C 241.375 225.5625 241.507812 228.9375 241.101562 232.238281 C 241.46875 231.890625 241.84375 231.554688 242.230469 231.230469 C 242.914062 221.550781 242.636719 212.238281 246.722656 206.179688 C 255.335938 193.425781 253.773438 181.390625 240.886719 170.367188 C 250.441406 198.40625 204.664062 218.363281 193.9375 192.515625 C 183.214844 166.664062 229.753906 146.683594 198.90625 110.714844 C 205.378906 123.128906 203.988281 132.742188 199.128906 138.753906" fill="#f9320b"/></g><g id="change5_5"><path d="M 10.640625 251.273438 C 10.230469 250.808594 10.839844 250.253906 11.320312 250.519531 C 16.359375 253.316406 22.261719 253.460938 27.929688 253.355469 C 25.140625 251.890625 22.417969 250.320312 19.761719 248.640625 C 17.929688 249.035156 10.8125 249.988281 3.714844 242.972656 C 5.246094 247.597656 10.261719 253.292969 17.539062 257.824219 C 15.066406 255.851562 12.753906 253.664062 10.640625 251.273438" fill="#f9320b"/></g><g id="change5_6"><path d="M 231.640625 121.53125 C 224.296875 129 221.011719 136.5625 219.847656 143.828125 C 220.085938 143.164062 220.34375 142.515625 220.621094 141.875 C 220.769531 141.496094 220.914062 141.117188 221.082031 140.746094 C 222.851562 136.761719 225.394531 133.351562 228.445312 130.261719 C 228.757812 129.945312 229.289062 130.195312 229.371094 130.582031 C 229.925781 133.136719 230.230469 135.734375 231.019531 138.234375 C 231.566406 139.96875 232.226562 141.664062 232.804688 143.390625 C 230.886719 133.878906 229.023438 125.578125 231.640625 121.53125" fill="#f9320b"/></g><g id="change5_7"><path d="M 148.632812 39.859375 C 148.703125 34.851562 149.4375 29.859375 150.894531 25.070312 C 152.261719 20.578125 154.101562 15.945312 157.398438 12.511719 C 157.71875 12.175781 158.328125 12.519531 158.277344 12.957031 C 157.898438 16.015625 157.945312 19.050781 158.648438 22.0625 C 159.253906 24.628906 160.027344 27.082031 161.605469 29.230469 C 162.382812 30.285156 163.253906 31.273438 164.125 32.257812 C 154.375 14.34375 166.371094 0.00390625 166.371094 0.00390625 C 153.261719 7.570312 144.6875 24.304688 148.648438 40.464844 C 148.648438 40.261719 148.628906 40.0625 148.632812 39.859375" fill="#f9320b"/></g><g id="change5_8"><path d="M 82.34375 37 C 83.238281 35.941406 84.226562 34.957031 85.285156 34.058594 C 86.359375 33.152344 87.535156 32.425781 88.664062 31.601562 C 89.050781 31.316406 89.507812 31.65625 89.398438 32.105469 C 88.710938 34.890625 88.609375 37.609375 88.851562 40.46875 C 89.003906 42.222656 89.148438 43.996094 89.492188 45.730469 C 89.847656 46.675781 90.230469 47.609375 90.628906 48.523438 C 91.003906 49.382812 91.464844 50.242188 91.90625 51.113281 C 90.714844 42.777344 88.472656 34.441406 94.589844 25.386719 C 88.828125 28.230469 83.65625 33.242188 80.566406 39.410156 C 81.113281 38.574219 81.695312 37.761719 82.34375 37" fill="#f9320b"/></g><g id="change5_9"><path d="M 174.730469 131.855469 C 173.242188 127.726562 172.878906 123.125 173.476562 118.785156 C 174.121094 114.113281 175.941406 109.878906 177.792969 105.582031 C 179.527344 101.554688 180.726562 97.46875 180.628906 93.039062 C 180.570312 90.355469 180.054688 87.660156 179.082031 85.148438 C 178.128906 83.996094 177.046875 82.824219 175.785156 81.628906 C 182.316406 92.4375 177.277344 102.628906 172.992188 116.347656 C 170.757812 123.507812 172.074219 128.953125 174.976562 132.5 C 174.890625 132.28125 174.808594 132.066406 174.730469 131.855469" fill="#f9320b"/></g><g id="change6_1"><path d="M 152.71875 69.21875 C 144.1875 61.308594 135.203125 53.699219 130.964844 43.269531 C 127.429688 34.566406 125.0625 22.785156 129.949219 13.308594 C 124.273438 21.523438 124.449219 32.589844 127.25 41.835938 C 129.621094 49.921875 135.367188 56.417969 141.898438 61.515625 C 145.914062 64.75 150.425781 68.003906 154.511719 70.800781 C 153.910156 70.277344 153.3125 69.75 152.71875 69.21875" fill="#ea2700"/></g><g id="change6_2"><path d="M 160.414062 77.988281 C 165.734375 85.84375 164.921875 94.617188 165.308594 103.234375 C 165.335938 104.394531 165.34375 105.679688 165.355469 106.773438 C 165.484375 105.921875 165.609375 105.070312 165.722656 104.214844 C 167.058594 94.984375 167.523438 85.101562 160.414062 77.988281" fill="#ea2700"/></g><g id="change6_3"><path d="M 120.949219 16.929688 C 116.320312 20.859375 111.871094 25.1875 108.652344 30.378906 C 103.613281 39.253906 101.574219 50.105469 104.21875 60.0625 C 103.035156 50.105469 106.054688 40.3125 110.355469 31.609375 C 112.941406 26.851562 116.902344 22.179688 120.238281 18.378906 C 121.34375 17.152344 122.644531 15.828125 123.789062 14.800781 C 122.808594 15.464844 121.863281 16.179688 120.949219 16.929688" fill="#ea2700"/></g><g id="change6_4"><path d="M 76.515625 117.246094 C 71.226562 110.664062 68.8125 102.332031 69.28125 94.953125 C 69.574219 89.898438 70.171875 86.078125 72.675781 81.4375 C 68.570312 86.53125 66.859375 93.257812 66.929688 99.722656 C 67.152344 108.472656 72.410156 116.726562 79.738281 121.339844 C 80.710938 121.976562 81.882812 122.710938 82.773438 123.234375 C 80.496094 121.351562 78.394531 119.601562 76.515625 117.246094" fill="#ea2700"/></g><g id="change6_5"><path d="M 41.234375 149.132812 C 37.671875 142.378906 37.34375 134.15625 40.375 127.113281 C 35.484375 133.875 35.445312 142.472656 40.761719 149 C 41.148438 149.535156 41.726562 150.308594 42.046875 150.671875 C 41.761719 150.164062 41.492188 149.652344 41.234375 149.132812" fill="#ea2700"/></g><g id="change6_6"><path d="M 39.300781 210.832031 C 37.558594 212.023438 35.671875 212.816406 33.820312 213.300781 C 26.054688 214.972656 18.019531 211.890625 13.136719 206.460938 C 10.707031 203.792969 8.601562 200.410156 8.53125 196.710938 C 7.878906 202.179688 11.050781 207.511719 14.984375 211.082031 C 20.421875 215.882812 28.941406 216.902344 35.40625 213.671875 C 37.105469 212.792969 38.722656 211.644531 40.046875 210.289062 C 39.804688 210.476562 39.554688 210.65625 39.300781 210.832031" fill="#ea2700"/></g><g id="change6_7"><path d="M 244.90625 179.617188 C 249.097656 187.871094 248.398438 193.632812 245.121094 202.085938 C 243.988281 205.097656 242.835938 208.195312 241.648438 211.140625 C 242.203125 210.214844 242.765625 209.292969 243.324219 208.375 C 249.75 198.535156 252.734375 189.769531 244.90625 179.617188" fill="#ea2700"/></g><g id="change6_8"><path d="M 205.511719 126.078125 C 206.371094 133.871094 204.945312 140.492188 202.113281 147.636719 C 199.765625 154.296875 196.160156 160.515625 194.597656 167.4375 C 194.089844 169.589844 193.589844 171.988281 193.195312 174.039062 C 193.777344 172.363281 194.40625 170.703125 195.058594 169.054688 C 196.871094 164.261719 198.804688 161.285156 201.34375 156.441406 C 206.21875 147.199219 208.640625 136.277344 205.511719 126.078125" fill="#ea2700"/></g><g id="change2_7"><path d="M 150.992188 104.757812 C 150.722656 95.542969 147.238281 86.121094 140.554688 79.636719 C 143.996094 84.1875 145.816406 89.082031 146.933594 94.335938 C 149.160156 103.148438 148.546875 111.554688 146.605469 120.902344 C 146.097656 123.792969 145.53125 127.019531 145.078125 129.738281 C 145.585938 128.105469 146.09375 126.472656 146.609375 124.84375 C 148.695312 118.304688 151.136719 111.722656 150.992188 104.757812" fill="#ffab17"/></g><g id="change2_8"><path d="M 206.742188 218.277344 C 201.074219 217.886719 196.644531 216.917969 192.3125 214.015625 C 185.496094 209.597656 179.628906 202.472656 177.226562 195.699219 C 175.589844 190.566406 176.203125 185.519531 177.753906 180.25 C 175.550781 184.890625 174.007812 190.558594 174.777344 195.152344 C 176.976562 207.019531 187.480469 217.332031 199.589844 218.597656 C 202.738281 218.773438 205.953125 218.769531 209.058594 218.308594 C 208.285156 218.328125 207.511719 218.316406 206.742188 218.277344" fill="#ffab17"/></g><g id="change2_9"><path d="M 228.949219 227.9375 C 228.679688 228.851562 228.039062 232.78125 227.035156 235.207031 C 225.808594 238.222656 224.367188 240.910156 222.070312 243.644531 C 221.703125 244.074219 221.296875 244.496094 220.921875 244.882812 C 221.210938 244.667969 221.488281 244.449219 221.765625 244.226562 C 233.207031 234.929688 230.980469 224.3125 233 211.605469 C 230.574219 217.945312 230.222656 222.691406 228.949219 227.9375" fill="#ffab17"/></g><g id="change2_10"><path d="M 33.992188 245.15625 C 27.527344 241.597656 22.550781 237.695312 18.039062 232.21875 C 14.457031 228.003906 11.695312 224.027344 9.53125 218.839844 C 11.554688 226.539062 15.746094 233.773438 21.746094 239.046875 C 25.566406 242.1875 30.128906 244.265625 34.742188 245.96875 C 35.457031 246.226562 36.273438 246.511719 36.9375 246.722656 C 35.953125 246.226562 34.96875 245.699219 33.992188 245.15625" fill="#ffab17"/></g><g id="change2_11"><path d="M 59.828125 189.078125 C 58.65625 186.09375 57.148438 183.101562 55.554688 180.402344 C 55.960938 181.371094 56.34375 182.355469 56.695312 183.347656 C 57.949219 186.488281 59.199219 192.789062 59.425781 195.148438 C 60.625 210.914062 49.277344 227.257812 30.0625 225.472656 C 52.429688 230.359375 68.878906 210.035156 59.828125 189.078125" fill="#ffab17"/></g><g id="change2_12"><path d="M 100.242188 167.21875 C 98.230469 157.558594 89.574219 151.722656 82.386719 145.867188 C 78.785156 142.800781 74.6875 139.84375 72.769531 134.785156 C 74.464844 142.035156 80.789062 146.9375 85.996094 151.785156 C 91.25 156.496094 96.699219 159.847656 99.554688 166.722656 C 100.042969 167.796875 100.503906 169.015625 100.871094 170.066406 C 100.695312 169.109375 100.480469 168.164062 100.242188 167.21875" fill="#ffab17"/></g><g id="change2_13"><path d="M 126.183594 141.039062 C 124.289062 137.625 122.152344 132.007812 121.421875 129.449219 C 122.042969 135.195312 123.425781 140.808594 125.210938 146.296875 C 127.578125 153.777344 126.730469 159.664062 121.117188 164.027344 C 118.632812 165.855469 113.769531 167.210938 110.3125 165.273438 C 117.464844 170.832031 127.921875 165.480469 129.859375 157.175781 C 131.671875 151.519531 128.78125 145.945312 126.183594 141.039062" fill="#ffab17"/></g><g id="change1_8"><path d="M 128.484375 103.226562 C 128.636719 92.734375 122.714844 83.730469 118.953125 74.304688 C 116.347656 68.019531 114.734375 62.394531 113.539062 54.957031 C 112.886719 49.742188 112.207031 45.195312 113.160156 39.871094 C 111.519531 44.769531 111.398438 50 111.382812 55.121094 C 111.53125 63.835938 113.488281 72.523438 117.46875 80.300781 C 121.5 88.128906 126.710938 95.054688 127.589844 103.5625 C 127.953125 105.917969 128.175781 108.359375 128.273438 110.683594 C 128.460938 108.203125 128.535156 105.710938 128.484375 103.226562" fill="#ff6915"/></g><g id="change1_9"><path d="M 48.171875 176.058594 C 43.148438 166.902344 36 158.417969 33.855469 147.992188 C 34.46875 159.425781 40.730469 169.597656 46.324219 179.269531 C 49.949219 185.878906 51.886719 191.863281 52.355469 199.484375 C 52.453125 200.683594 52.476562 202.226562 52.507812 203.3125 C 52.628906 202.382812 52.730469 201.449219 52.820312 200.515625 C 53.855469 192.097656 52.375 183.46875 48.171875 176.058594" fill="#ff6915"/></g><g id="change1_10"><path d="M 66.632812 142.707031 C 66.636719 136.433594 66.128906 130.15625 64.640625 124.050781 C 63.839844 120.601562 63.09375 117.136719 62.554688 113.640625 C 62.820312 113.867188 63.167969 114.023438 63.613281 114.058594 C 66.039062 114.238281 66.320312 110.546875 63.898438 110.347656 C 63.09375 110.289062 62.527344 110.660156 62.21875 111.1875 C 62.097656 110.203125 61.976562 109.214844 61.90625 108.222656 C 61.867188 106.679688 61.617188 102.683594 62.4375 100.464844 C 60.355469 105.382812 60.507812 110.980469 60.789062 116.222656 C 61.585938 125.824219 65.222656 134.929688 66.347656 144.496094 C 66.421875 145.097656 66.488281 145.695312 66.535156 146.304688 C 66.617188 145.105469 66.632812 143.90625 66.632812 142.707031" fill="#ff6915"/></g><g id="change1_11"><path d="M 80.382812 130.355469 C 77.65625 127.476562 74.125 125.082031 72.300781 121.496094 C 73.203125 124.613281 75.617188 127.09375 77.632812 129.5625 C 81.53125 133.9375 86.019531 138.136719 90.15625 142.074219 C 87.109375 138.007812 84.003906 133.941406 80.382812 130.355469" fill="#ff6915"/></g><g id="change1_12"><path d="M 117.828125 126.011719 C 119.34375 120.632812 121.855469 115.574219 123.179688 110.148438 C 121.789062 113.8125 119.523438 116.941406 117.734375 120.554688 C 112.542969 129.894531 112.179688 138.21875 116.839844 148.5 C 117.109375 149.136719 117.433594 149.871094 117.699219 150.433594 C 117.292969 149.03125 116.941406 147.609375 116.660156 146.175781 C 114.925781 138.714844 116.144531 131.582031 117.828125 126.011719" fill="#ff6915"/></g><g id="change1_13"><path d="M 213.3125 208.707031 C 209.914062 208.613281 206.355469 208.207031 203.164062 207.457031 C 192.511719 205.058594 189.441406 196.738281 190.183594 187.972656 C 190.59375 172.554688 197.546875 159.027344 200.625 143.300781 C 196.898438 154.902344 190.519531 165.578125 187.832031 177.535156 C 184.851562 191.621094 186.335938 207.324219 203.8125 208.761719 C 207.207031 209.066406 210.679688 209.023438 214.042969 208.722656 C 213.800781 208.71875 213.554688 208.714844 213.3125 208.707031" fill="#ff6915"/></g><g id="change1_14"><path d="M 148.636719 73.539062 C 144.425781 69.023438 140.113281 64.53125 135.078125 60.914062 C 129.265625 56.796875 123.761719 52.398438 121.039062 45.789062 C 122.648438 54.050781 128.734375 60.667969 135.640625 65.269531 C 140.675781 68.859375 145.574219 72.628906 150.460938 76.421875 C 151.453125 77.195312 152.519531 78.054688 153.457031 78.804688 C 151.855469 77.046875 150.253906 75.285156 148.636719 73.539062" fill="#ff6915"/></g><g id="change3_7"><path d="M 77.285156 205.695312 C 76.929688 201.847656 76.261719 197.976562 75.113281 194.300781 C 75.152344 194.527344 75.191406 194.753906 75.226562 194.980469 C 76.148438 200.683594 75.648438 208.5625 74.613281 213.113281 C 73.320312 218.960938 69.796875 224.023438 66.402344 227.617188 C 60.703125 232.738281 53.609375 235.710938 45.175781 236.167969 C 64.925781 238.046875 79.875 226.402344 77.285156 205.695312" fill="#ffcb39"/></g><g id="change3_8"><path d="M 98.523438 193.0625 C 96.816406 178.898438 89.640625 173.875 78.761719 166.277344 C 86.539062 174.332031 94.105469 182.167969 98.042969 192.652344 C 98.273438 193.28125 98.457031 193.890625 98.652344 194.554688 C 98.617188 194.058594 98.578125 193.558594 98.523438 193.0625" fill="#ffcb39"/></g><g id="change3_9"><path d="M 145.203125 155.082031 C 145.148438 155.347656 145.101562 155.609375 145.046875 155.855469 C 144.164062 159.800781 142.644531 163.5625 141.03125 167.257812 C 139.445312 170.710938 138.421875 173.621094 135.828125 176.4375 C 130.839844 182.171875 121.71875 185.332031 113.816406 183.347656 C 121.773438 187.414062 132.214844 185.378906 137.9375 178.480469 C 141.792969 173.996094 142.902344 167.902344 144.25 162.304688 C 144.730469 159.941406 145.105469 157.4375 145.203125 155.082031" fill="#ffcb39"/></g><g id="change3_10"><path d="M 166.796875 215.34375 C 163.371094 207.777344 161.515625 199.96875 162.171875 192.316406 C 163.113281 184.328125 165.894531 176.097656 171.625 169.1875 C 164.335938 174.917969 159.21875 183.636719 158.027344 192.859375 C 157.160156 202.324219 162.15625 211.335938 167.671875 218.261719 C 168.453125 219.195312 169.347656 220.207031 170.15625 221.023438 C 168.871094 219.261719 167.769531 217.347656 166.796875 215.34375" fill="#ffcb39"/></g><g id="change3_11"><path d="M 202.308594 241.402344 C 197.234375 242.09375 192.164062 240.765625 187.179688 238.976562 C 183.933594 237.859375 180.554688 236.882812 177.695312 235.195312 C 181.703125 238.667969 186.617188 241.234375 191.710938 242.691406 C 195.429688 243.445312 199.34375 242.855469 202.90625 241.652344 C 203.445312 241.46875 204.179688 241.183594 204.578125 241 C 203.828125 241.175781 203.070312 241.3125 202.308594 241.402344" fill="#ffcb39"/></g><g id="change3_12"><path d="M 151.710938 168.75 C 141.941406 178.917969 142.628906 192.21875 144.308594 205.230469 C 144.4375 206.207031 144.574219 207.378906 144.714844 208.246094 C 144.800781 206.699219 144.910156 205.15625 145.027344 203.613281 C 146.40625 191.675781 145.636719 179.0625 151.710938 168.75" fill="#ffcb39"/></g><g id="change3_13"><path d="M 125.140625 200.414062 C 124.953125 199.398438 124.738281 198.390625 124.503906 197.390625 C 124.507812 197.453125 124.511719 197.519531 124.515625 197.582031 C 124.753906 200.773438 124.96875 204.898438 123.6875 207.640625 C 121.007812 211.691406 116.78125 210.824219 113.523438 208.414062 C 112.035156 207.191406 108.785156 203.097656 107.605469 200.800781 C 105.53125 196.851562 104.484375 193.355469 103.621094 188.945312 C 103.582031 195.285156 104.132812 201.109375 107.351562 206.292969 C 109.230469 209.5 111.726562 212.816406 115.609375 213.519531 C 119.425781 214.574219 123.902344 212.695312 125.296875 208.878906 C 126.164062 206.136719 125.585938 203.1875 125.140625 200.414062" fill="#ffcb39"/></g><g id="change3_14"><path d="M 66.71875 249.246094 C 61.683594 248.386719 56.195312 247.179688 51.605469 244.394531 C 53.507812 246.3125 55.835938 247.851562 58.382812 248.769531 C 61.359375 249.792969 64.578125 249.761719 67.683594 249.605469 C 68.0625 249.582031 68.519531 249.554688 68.835938 249.523438 C 68.128906 249.445312 67.421875 249.355469 66.71875 249.246094" fill="#ffcb39"/></g><g id="change3_15"><path d="M 92.644531 195.761719 C 91.558594 190.636719 89.992188 185.332031 86.570312 181.261719 C 88.273438 184.191406 88.84375 187.273438 89.300781 190.6875 C 90.175781 196.3125 89.714844 198.726562 90.664062 204.710938 C 91.636719 209.476562 93.558594 213.945312 96.003906 218.722656 C 93.546875 211.3125 93.699219 203.414062 92.644531 195.761719" fill="#ffcb39"/></g></g></svg>