<?xml version="1.0" encoding="UTF-8" standalone="no"?><svg xmlns="http://www.w3.org/2000/svg" xmlns:xlink="http://www.w3.org/1999/xlink" fill="#ffffff" height="819" preserveAspectRatio="xMidYMid meet" version="1" viewBox="-49.8 -0.1 555.2 819.0" width="555.2" zoomAndPan="magnify"><g id="change1_1" stroke="#1a1a1a"><path d="m433.86 847.65s40.922 37.585 69.992 38.956c28.81 1.3595 46.327 11.076 77.252-31.594 0 0 39.321-61.088 40.492-95.708 1.2068-35.68-17.057-83.106-45.709-97.651-16.947-8.6029 5.2151 28.278 13.615 78.808s-35.062 90.745-59.933 81.421c-35.784-13.416-69.941-53.376-69.941-53.376l-25.768 79.144z" fill="inherit" stroke-width="1.714" transform="translate(-118.21 -145.19)"/><path d="m476.79 688.56c0 39.736-33.414 60.901-74.632 60.901s-77.975-25.768-77.975-65.504 36.757-78.392 77.975-78.392 74.632 43.259 74.632 82.994z" fill="inherit" transform="matrix(2.1415 0 0 1.9442 -669.19 -931.35)"/><path d="m239.51 213.12-89.472 101.92c2.2962-57.615-37.991-111.74 10.599-169.35 30.497 9.1803 35.862 55.805 78.872 67.431z" fill="inherit" transform="translate(-118.21 -145.19)"/><path d="m336.26 219.84 56.019 77.917c39.135-43.956 41.004-90.268 38.166-137.97-41.599 2.9603-36.649 40.367-94.185 60.055z" fill="inherit" transform="translate(-118.21 -145.19)"/><path d="m201.95 829.24s-35.085 38.683-34.97 62.579c0.0473 9.8926 4.8356 26.042 14.724 25.768l66.26-1.8405 11.043-60.738-57.057-25.768z" fill="inherit" stroke-width="1.714" transform="translate(-118.21 -145.19)"/><path d="m457.35 581.35c30.727 9.9434 50.241 43.355 43.99 140.22 0 95.043-84.421 198.06-192.95 194.18-101.91-3.6437-160.66-117.64-183.74-197.86-16.899-58.737 3.9898-108.19 41.237-136.73" fill="inherit" transform="translate(-118.21 -145.19)"/><path d="m203.03 407.44c-134.6 52.407 49.544 426.86 24.689 491.74 0 0-11.714 18.987-11.043 29.449 0.75554 11.777 4.7778 31.864 16.565 31.289 0 0 51.544 4.202 75.462-3.6811 8.4036-2.7696 24.113-6.1112 22.087-14.724 0 0-0.71591-22.885-7.3622-31.289-3.4038-4.3041-14.118-1.9082-14.724-7.362l-29.449-265.04c1.4738-23.821-3.4069-49.458 7.7268-70.519" fill="inherit" stroke-width="1.714" transform="translate(-118.21 -145.19)"/><path d="m367.26 400.28c41.869 7.3505 83.497 13.495 88.331 59.461 13.103 124.6-45.284 370.87-26.92 426.31 0 0 11.714 18.987 11.043 29.449-0.75554 11.777-4.7778 31.864-16.565 31.289 0 0-51.544 4.202-75.462-3.6811-8.4036-2.7696-24.113-6.1112-22.087-14.724 0 0 0.71591-22.885 7.3622-31.289 3.4038-4.3041 14.534-1.878 14.724-7.362l7.7712-223.49c1.7298-22.722 2.212-45.694-3.6811-69.941" fill="inherit" stroke-width="1.714" transform="translate(-118.21 -145.19)"/><path d="m281.55 200.64c-42.483 2.3772-84.132 22.539-110.93 55.825-23.605 29.882-28.004 73.236-11.686 107.53 15.257 34.585 42.011 64.215 75.419 82.057 17.988 9.8395 38.804 15.86 59.402 13.138 20.493-2.9806 38.956-13.803 54.739-26.779 22.687-18.465 41.979-42.118 51.783-69.941 11.499-32.197 8.105-69.161-8.5561-98.957-14.946-27.159-40.225-48.91-70.102-57.811-12.955-3.8765-26.558-5.4973-40.065-5.0612z" fill="inherit" transform="translate(-118.21 -145.19)"/></g></svg>