<?xml version="1.0" encoding="UTF-8" standalone="no"?><svg xmlns="http://www.w3.org/2000/svg" xmlns:xlink="http://www.w3.org/1999/xlink" fill="#000000" height="369.8" preserveAspectRatio="xMidYMid meet" version="1" viewBox="-5.1 -26.4 506.6 369.8" width="506.6" zoomAndPan="magnify"><g id="change1_1"><path d="M206.02,235.98c0,0-26.11,33.57-36.56,49.99 c0,0-11.19,17.91,9.7,36.56h11.94c0,0,14.18,8.95,0.75,14.18h-13.43c0,0-16.52-1.27-36.07-30.19c-3.42-5.06-5.21-11.06-5.2-17.17 c0.01-7.87,0.55-18.62,3.22-23.52c0,0,1.6-1.07,0.74-10.45c-0.3-3.28-3.27-5.64-6.53-5.18c-10.61,1.51-32.82,5-41.21,8.91 c0,0-17.91,4.48-24.62,40.29c0,0-2.98,2.98,7.46,8.21c0,0,11.19,7.46-1.49,10.44H64.27c0,0-14.18,0-13.43-25.37 c0,0,5.97-36.56,11.94-43.27l29.84-37.3l0.17-0.29c3.53-6.17,5.87-12.94,7.02-19.96c1.93-11.83,6.74-31.72,18.18-44.65 c0,0-95.5-17.16-111.91-63.42c0,0-11.19-21.64-1.88-53.27c0.64-2.17,2.39-3.83,3.44-5.84c6.24-11.97,30.21-51.05,51.4,6.13 c0,0,1.25,18.81-11.18,7.58c-1.94-1.75-3.62-3.78-5.08-5.95c-3.79-5.68-14.65-19.72-19.19-2.39c-0.25,0.96-0.56,1.92-0.91,2.85 c-3.77,10.01-22.14,73.24,112.45,81.48c0,0,60.43-8.95,141.01,11.19c0,0,36.56,8.95,79.83,0c0,0,24.62-12.68,28.35-20.14 c0,0,13.56-19.45,28.62-23.25c4.1-1.03,7.86-3.11,10.64-6.3l12.89-14.8c0.89-1.02,2.56-0.5,2.73,0.84l1.74,14.37 c0.47,3.88,2.9,7.23,6.43,8.92c6.02,2.89,14.79,9.01,15.28,20.22c0,0,8.21,17.91,15.67,26.86c0,0,11.19,13.43-2.98,18.65 c0,0-7.46,9.7-21.64,8.21c0,0-26.86,3.73-32.08,32.08c0,0-8.21,83.56,57.45,129.82c0,0,22.38,4.48-2.24,11.19l-11.19,0.75 c0,0-85.05-68.64-91.77-83.56c0,0-16.41-12.68-41.03,0.75c0,0-29.1,38.8-33.57,53.72l-1.49,14.18c0,0,17.91,14.18,0,18.65 c0,0-11.19,6.71-16.41-15.67c0,0,9.88-50.45,7.58-71.83c-0.43-4.01-3.32-7.3-7.23-8.29C265.93,236.92,221.27,226.83,206.02,235.98z" fill="#ffffff" stroke="#ffffff" stroke-miterlimit="10"/></g></svg>