<?xml version="1.0" encoding="UTF-8" standalone="no"?><svg xmlns="http://www.w3.org/2000/svg" xmlns:xlink="http://www.w3.org/1999/xlink" fill="#000000" height="489" preserveAspectRatio="xMidYMid meet" version="1" viewBox="-5.1 6.2 489.0 489.0" width="489" zoomAndPan="magnify"><g id="change1_1"><path d="M482.6,251.3c-0.3,0-0.6,0-0.9,0c-39.3,0-78.7,0.1-118,0.1c-2.4,0-2.4,0-2.5,2.4c-0.1,6.5-0.8,13-2,19.4 c-4.5,23.3-14.8,43.7-31.1,61c-12.2,13-26.6,22.8-43.1,29.4c-11.5,4.6-23.4,7.4-35.7,8.5c-3.2,0.3-6.3,0.2-9.5,0.5 c-0.5,0-1.1-0.1-1.6-0.1c-6,0-11.9-0.5-17.8-1.4c-11-1.7-21.5-4.8-31.6-9.4c-17-7.7-31.5-18.8-43.4-33.1 c-9.3-11.2-16.3-23.6-21.2-37.3c-3.7-10.5-5.9-21.2-6.7-32.3c-0.1-2.1-0.1-4.3-0.4-6.4c0,0,0,0,0,0l0,0c0-0.7,0.1-1.3,0.1-2 c0-7.6,0.6-15.1,2.1-22.6c6.5-32.8,23.4-58.8,50.8-77.9c20.5-14.3,43.4-21.2,68.4-21.4c0.4,0,0.8,0,1.3,0c0.7,0,1-0.3,0.9-1 c0-0.2,0-0.5,0-0.7c-0.1-12.3,0.2-24.7,0.2-37c0-17.6,0.1-35.3,0.1-52.9c0-2.6,0-5.1,0.1-7.7c0.2-7.3,0-14.5,0.1-21.8 c0-1.3-0.1-1.4-1.4-1.4c-2.7,0-5.5,0.1-8.2,0.2c-5.7,0.2-11.4,0.6-17.1,1.1c-11.7,1.2-23.2,3.2-34.6,6c-19.9,5-38.8,12.3-56.8,22.1 C97.8,49.2,75.7,66.8,56.5,88.3c-9.3,10.4-17.5,21.5-24.8,33.4c-13.2,21.5-23,44.4-29.2,68.8c-3.1,12.1-5.2,24.3-6.4,36.8 c-0.3,3.4-0.6,6.9-0.8,10.3c-0.3,4.9-0.4,9.8-0.2,14.6l0,0c0,3.8,0,7.6,0.2,11.4c0.2,4,0.5,8.1,0.9,12.1c0.8,7.6,1.9,15.1,3.4,22.6 c3.4,17.1,8.5,33.6,15.5,49.5c2.4,5.5,10.3,21.1,10.7,21.7c7.1,12.6,15.2,24.5,24.3,35.7c8.3,10.2,17.5,19.7,27.4,28.4 c10.5,9.3,21.6,17.5,33.5,24.9c20.2,12.5,41.8,21.8,64.7,28c8.9,2.4,17.8,4.3,26.9,5.6c6.5,1,13,1.7,19.5,2.2 c4.5,0.3,9,0.5,13.6,0.5c1.4,0,2.7,0.4,4.1,0c0,0,0,0,0,0c0,0,0,0,0,0c0.6,0.3,1.3,0.2,1.9,0.2c5.9-0.2,11.8-0.4,17.7-0.9 c7.5-0.6,14.9-1.6,22.3-2.9c20.8-3.6,40.9-9.9,60-18.8c29-13.4,54.4-31.8,76.2-55.1c9.6-10.3,18.3-21.4,26-33.2 c14.2-21.7,24.6-45.1,31.4-70.2c3-10.9,5.1-22,6.5-33.3c0.9-7.3,1.4-14.7,1.8-22.1c0.1-2,0-4.1,0.1-6.1 C483.8,251.6,483.4,251.3,482.6,251.3z" fill="#6d6d6d"/></g><g id="change2_1"><path d="M239.9,372.6c3.1-0.3,6.3-0.2,9.5-0.5c12.3-1,24.2-3.8,35.7-8.5c16.5-6.7,30.9-16.5,43.1-29.4 c16.2-17.3,26.6-37.7,31.1-61c1.2-6.4,1.9-12.8,2-19.4c0-2.4,0.1-2.4,2.5-2.4c39.3,0,78.7-0.1,118-0.1c0.3,0,0.6,0,0.9,0 c0.8-0.1,1.2,0.3,1.1,1.2c-0.1,2,0,4.1-0.1,6.1c-0.3,7.4-0.8,14.7-1.8,22.1c-1.4,11.2-3.6,22.3-6.5,33.3 c-6.8,25.1-17.2,48.5-31.4,70.2c-7.7,11.8-16.4,22.9-26,33.2c-21.8,23.3-47.2,41.7-76.2,55.1c-19.2,8.9-39.2,15.2-60,18.8 c-7.4,1.3-14.8,2.2-22.3,2.9c-5.9,0.5-11.8,0.7-17.7,0.9c-0.6,0-1.3,0.1-1.9-0.2c-0.9-0.7-0.7-1.7-0.7-2.7c0-6.1,0-12.2,0-18.2 c0-32.7,0-65.3,0-98C239.2,374.8,238.8,373.5,239.9,372.6z" fill="#c9c9c9"/></g><g id="change3_1"><path d="M239.9,372.6c0,0.8-0.1,1.5-0.1,2.3c0,40,0,79.9,0.1,119.9c-1.4,0.4-2.7,0-4.1,0c-4.5,0-9.1-0.2-13.6-0.5 c-6.5-0.5-13-1.2-19.5-2.2c-9.1-1.4-18-3.3-26.9-5.6c-22.9-6.2-44.5-15.5-64.7-28c-11.9-7.3-23.1-15.6-33.5-24.9 c-9.9-8.7-19-18.2-27.4-28.4c-9.1-11.2-17.3-23.1-24.3-35.7c-0.4-0.7-8.3-16.2-10.7-21.7c-7-15.9-12.1-32.4-15.5-49.5 c-1.5-7.5-2.6-15-3.4-22.6c-0.4-4-0.7-8.1-0.9-12.1c-0.2-3.8-0.3-7.6-0.2-11.4c1.9-0.2,3.7,0.3,5.5,0.3c38.3,0,76.6,0,115,0 c0.6,0,1.2,0,1.8,0c0.2,2.1,0.2,4.3,0.4,6.4c0.7,11.1,3,21.8,6.7,32.3c4.8,13.7,11.9,26.1,21.2,37.3c11.9,14.4,26.4,25.4,43.4,33.1 c10.1,4.6,20.6,7.7,31.6,9.4c5.9,0.9,11.8,1.4,17.8,1.4C238.8,372.4,239.3,372.5,239.9,372.6z" fill="#ffffff"/></g></svg>