<?xml version="1.0" encoding="UTF-8" standalone="no"?><svg xmlns="http://www.w3.org/2000/svg" xmlns:xlink="http://www.w3.org/1999/xlink" clip-rule="evenodd" fill="#000000" fill-rule="evenodd" height="537.9" preserveAspectRatio="xMidYMid meet" stroke-linejoin="round" stroke-miterlimit="2" version="1" viewBox="0.0 0.0 378.0 537.9" width="378" zoomAndPan="magnify"><g><g><g id="change1_1"><path d="M11052,2625.14C11052,2619.53 11049.8,2614.16 11045.8,2610.19C11041.8,2606.23 11036.5,2604 11030.9,2604L10708.1,2604C10702.5,2604 10697.2,2606.23 10693.2,2610.19C10689.2,2614.16 10687,2619.53 10687,2625.14C10687,2709.73 10687,3023.27 10687,3107.86C10687,3113.47 10689.2,3118.84 10693.2,3122.81C10697.2,3126.77 10702.5,3129 10708.1,3129C10772.6,3129 10966.4,3129 11030.9,3129C11036.5,3129 11041.8,3126.77 11045.8,3122.81C11049.8,3118.84 11052,3113.47 11052,3107.86C11052,3023.27 11052,2709.73 11052,2625.14Z" fill="#c9c9c9" transform="translate(-10675.5 -2592.54)"/></g><g id="change2_1"><path d="M11053.5,2625.14C11053.5,2619.15 11051.1,2613.4 11046.8,2609.16C11042.6,2604.92 11036.9,2602.54 11030.9,2602.54C10966.4,2602.54 10772.6,2602.54 10708.1,2602.54C10702.1,2602.54 10696.4,2604.92 10692.2,2609.16C10687.9,2613.4 10685.5,2619.15 10685.5,2625.14C10685.5,2709.73 10685.5,3023.27 10685.5,3107.86C10685.5,3113.85 10687.9,3119.6 10692.2,3123.84C10696.4,3128.08 10702.1,3130.46 10708.1,3130.46C10772.6,3130.46 10966.4,3130.46 11030.9,3130.46C11036.9,3130.46 11042.6,3128.08 11046.8,3123.84C11051.1,3119.6 11053.5,3113.85 11053.5,3107.86C11053.5,3023.27 11053.5,2709.73 11053.5,2625.14ZM11050.5,2625.14C11050.5,2709.73 11050.5,3023.27 11050.5,3107.86C11050.5,3113.08 11048.5,3118.09 11044.8,3121.78C11041.1,3125.47 11036.1,3127.54 11030.9,3127.54C10966.4,3127.54 10772.6,3127.54 10708.1,3127.54C10702.9,3127.54 10697.9,3125.47 10694.2,3121.78C10690.5,3118.09 10688.5,3113.08 10688.5,3107.86C10688.5,3023.27 10688.5,2709.73 10688.5,2625.14C10688.5,2619.92 10690.5,2614.91 10694.2,2611.22C10697.9,2607.53 10702.9,2605.46 10708.1,2605.46C10772.6,2605.46 10966.4,2605.46 11030.9,2605.46C11036.1,2605.46 11041.1,2607.53 11044.8,2611.22C11048.5,2614.91 11050.5,2619.92 11050.5,2625.14Z" fill="#ffffff" transform="translate(-10675.5 -2592.54)"/></g><g id="change3_1"><path d="M11052,2625.14C11052,2619.53 11049.8,2614.16 11045.8,2610.19C11041.8,2606.23 11036.5,2604 11030.9,2604L10708.1,2604C10702.5,2604 10697.2,2606.23 10693.2,2610.19C10689.2,2614.16 10687,2619.53 10687,2625.14C10687,2709.73 10687,3023.27 10687,3107.86C10687,3113.47 10689.2,3118.84 10693.2,3122.81C10697.2,3126.77 10702.5,3129 10708.1,3129C10772.6,3129 10966.4,3129 11030.9,3129C11036.5,3129 11041.8,3126.77 11045.8,3122.81C11049.8,3118.84 11052,3113.47 11052,3107.86C11052,3023.27 11052,2709.73 11052,2625.14Z" fill="#000000" transform="translate(-10685.5 -2602.54)"/></g><g id="change2_2"><path d="M11053.5,2625.14C11053.5,2619.15 11051.1,2613.4 11046.8,2609.16C11042.6,2604.92 11036.9,2602.54 11030.9,2602.54C10966.4,2602.54 10772.6,2602.54 10708.1,2602.54C10702.1,2602.54 10696.4,2604.92 10692.2,2609.16C10687.9,2613.4 10685.5,2619.15 10685.5,2625.14C10685.5,2709.73 10685.5,3023.27 10685.5,3107.86C10685.5,3113.85 10687.9,3119.6 10692.2,3123.84C10696.4,3128.08 10702.1,3130.46 10708.1,3130.46C10772.6,3130.46 10966.4,3130.46 11030.9,3130.46C11036.9,3130.46 11042.6,3128.08 11046.8,3123.84C11051.1,3119.6 11053.5,3113.85 11053.5,3107.86L11053.5,2625.14ZM11050.5,2625.14C11050.5,2709.73 11050.5,3023.27 11050.5,3107.86C11050.5,3113.08 11048.5,3118.09 11044.8,3121.78C11041.1,3125.47 11036.1,3127.54 11030.9,3127.54C10966.4,3127.54 10772.6,3127.54 10708.1,3127.54C10702.9,3127.54 10697.9,3125.47 10694.2,3121.78C10690.5,3118.09 10688.5,3113.08 10688.5,3107.86C10688.5,3023.27 10688.5,2709.73 10688.5,2625.14C10688.5,2619.92 10690.5,2614.91 10694.2,2611.22C10697.9,2607.53 10702.9,2605.46 10708.1,2605.46C10772.6,2605.46 10966.4,2605.46 11030.9,2605.46C11036.1,2605.46 11041.1,2607.53 11044.8,2611.22C11048.5,2614.91 11050.5,2619.92 11050.5,2625.14Z" fill="#ffffff" transform="translate(-10685.5 -2602.54)"/></g></g></g></svg>