<?xml version="1.0" encoding="UTF-8"?><svg xmlns="http://www.w3.org/2000/svg" xmlns:xlink="http://www.w3.org/1999/xlink" height="260.2" preserveAspectRatio="xMidYMid meet" version="1.0" viewBox="-297.4 8.4 196.7 260.2" width="196.7" zoomAndPan="magnify"><g><g id="change1_1"><path d="m -271.19139,8.9242792 h 144.25593 c 14.23887,0 25.70192,11.4630578 25.70192,25.7019238 V 242.3834 c 0,14.23886 -11.46305,25.70192 -25.70192,25.70192 h -144.25593 c -14.23886,0 -25.70192,-11.46306 -25.70192,-25.70192 V 34.626203 c 0,-14.238866 11.46306,-25.7019238 25.70192,-25.7019238 z" stroke="#fff" stroke-linecap="round"/></g><g id="change2_1"><path d="m -217.83903,68.716948 c -0.32427,-0.107616 0.21081,-7.001489 8.16934,-15.062133 3.35126,-3.395183 8.01166,-6.509173 14.0925,-8.601868 3.12856,-4.919839 8.02373,-12.980278 12.39161,-19.160398 1.70426,-2.38214 3.61694,-4.936231 5.87758,-7.266923 1.53788,-1.367031 3.59736,-2.973084 6.4748,-3.608021 3.86444,3.360903 6.39374,8.013796 7.70008,13.033382 0.73003,4.123214 0.76282,8.260606 1.85036,11.9109 -0.0484,-0.0206 22.82508,9.739152 22.77668,9.718549 0.71889,2.118553 5.49275,16.180594 6.21164,18.299147 0.0595,0.07452 7.53012,9.442563 7.58963,9.517082 -0.004,0.04152 -0.68791,7.302035 -0.6918,7.343552 0,0 -2e-5,6e-6 -2e-5,6e-6 -0.007,0.0027 -1.97587,0.738506 -1.98301,0.741176 0,0 -1e-5,6e-6 -1e-5,6e-6 0.0122,0.03264 1.355,3.624368 1.36718,3.657007 0,0 10e-6,1.5e-5 10e-6,1.5e-5 -0.54772,1.209062 -1.30082,2.575551 -2.44833,3.883388 -1.27462,0.99569 -2.73562,1.360855 -4.06246,1.331944 -0.26026,2.497997 -1.22037,5.092907 -3.23582,7.080421 -2.09741,1.7274 -4.48749,2.78308 -6.79716,3.47093 -2.70788,-0.46398 -5.32696,-0.83013 -7.58303,-0.31103 -1.12883,0.25767 -2.19874,0.8304 -2.86084,1.65128 -0.71385,0.77991 -1.22305,1.96459 -1.82771,3.3143 -0.53265,1.29811 -1.1304,2.81272 -2.1119,4.34117 -1.38945,3.07811 -2.28357,6.41003 -2.64635,9.82564 -0.17182,1.61775 -0.22338,3.24459 -0.15485,4.86148 0.20189,5.45225 1.61077,10.87038 3.55733,16.01765 -0.23688,6.91905 -2.17423,13.64618 -5.5161,19.46349 -3.12872,5.21627 -7.19762,9.61098 -11.15177,13.59902 -4.00616,4.93794 -7.04027,10.42456 -8.05366,16.21399 -1.18206,6.29766 0.1286,12.90397 2.62046,18.65326 0,1e-5 1e-5,1e-5 1e-5,2e-5 3.46714,9.82467 6.77292,19.2245 9.88347,28.10123 0.34496,0.52467 1.02173,0.89164 1.71241,0.94236 0,0 2e-5,0 2e-5,0 1.01577,0.27557 2.38212,0.31517 3.9975,0.66455 2.09393,2.08048 3.9997,4.53534 5.02584,7.49757 0.4933,2.10115 0.39053,4.17317 0.006,6.03177 -1.00095,1.83365 -2.43887,3.51434 -4.34325,4.66095 -1.62871,0.85313 -3.37904,1.16096 -5.01231,1.09875 -3.41338,-0.13623 -6.6358,-1.36664 -9.20231,-1.98835 -1.19867,0.001 -2.46434,-0.28912 -3.62228,-0.9806 -1.02199,-0.63425 -1.79281,-1.48971 -2.32083,-2.41191 -1.08862,-1.92924 -1.49108,-3.97684 -1.94443,-5.54902 -0.10408,-0.28584 -3.00777,-8.24959 -3.11185,-8.53543 -1.68089,-1.05917 -2.87906,-2.66312 -3.40629,-4.47279 -0.46715,-1.5947 -0.53423,-2.99638 -0.97178,-4.05783 -9.51076,-10.98218 -14.77258,-17.3637 -14.47602,-17.6317 0.29672,-0.26815 6.12113,5.61855 16.31882,16.44456 0.69594,1.54846 0.93436,3.16022 1.42328,4.49661 0.52306,1.41016 1.62002,2.71127 3.03323,3.63227 -2.62533,-6.06213 6.58116,15.19587 3.95583,9.13373 0.61485,1.79104 1.00646,3.67233 1.84009,4.93837 0.35443,0.54425 0.78314,1.01969 1.27123,1.27364 0.61863,0.35342 1.46194,0.47253 2.37922,0.4963 3.00789,0.60569 6.19456,1.7446 8.89882,1.72239 1.1658,-0.0103 2.32303,-0.21209 3.21524,-0.74949 1.07005,-0.49399 1.92427,-1.53718 2.64709,-2.75471 0.18533,-1.32884 0.20802,-2.64776 -0.22317,-3.74295 -0.37131,-1.87007 -1.65266,-3.55024 -3.15661,-5.25959 -0.65286,-0.059 -1.64493,0.11758 -2.93285,-0.0237 0,0 -2e-5,0 -2e-5,0 -1.7898,-0.39814 -3.42329,-1.44415 -4.56514,-3.01003 -3.30884,-8.91737 -6.80924,-18.38383 -10.46386,-28.30018 0,0 0,-1e-5 0,-1e-5 -2.86922,-6.30499 -4.35518,-13.72135 -3.07464,-21.14543 1.25397,-6.84441 4.62049,-13.14837 9.06452,-18.5943 3.88762,-4.01464 7.75318,-8.18914 10.522,-12.89929 2.95776,-4.78594 4.69392,-10.40198 4.93753,-16.15118 -2.06975,-5.17622 -3.54375,-10.79759 -3.74836,-16.64458 -0.0579,-1.89836 0.0226,-3.80585 0.2422,-5.70323 0.46355,-4.00605 1.54057,-7.91613 3.19137,-11.5592 0.69913,-1.0307 1.22396,-2.40165 1.88847,-3.90315 0.59393,-1.45327 1.37224,-3.06472 2.6287,-4.58799 1.50091,-1.7076 3.47774,-2.81523 5.57751,-3.264543 2.99886,-0.631579 5.8686,-0.231533 8.3632,0.404043 1.52747,-0.61064 2.88552,-1.269694 3.70897,-2.294576 1.75049,-1.560963 2.8929,-3.945113 3.74963,-6.430517 1.50168,-0.591049 2.85023,-1.198668 3.73888,-2.076623 0.37858,-0.01409 0.70918,-0.393063 1.17341,-0.918381 0,0 0,-1.8e-5 0,-1.8e-5 0.004,0.04559 -0.42183,-4.59889 -0.41767,-4.553298 0,0 2e-5,-10e-6 2e-5,-10e-6 -0.007,0.005 1.95055,-1.405627 1.94361,-1.400618 0,0 1e-5,-1e-5 1e-5,-1e-5 -1.3e-4,0.02696 0.0223,-3.749517 0.0221,-3.722555 0.0647,0.07581 -7.46784,-8.764257 -7.40315,-8.688446 1.01717,3.4666 -6.2286,-21.22154 -5.21144,-17.75494 -0.0513,-0.02251 -22.50733,-9.89235 -22.55866,-9.914863 -1.60728,-4.848801 -1.98109,-9.516391 -2.91113,-13.671581 -0.55112,-4.244057 -2.03379,-8.091519 -4.67304,-10.64616 -0.9825,0.218702 -1.95853,1.617685 -3.10761,2.954375 -2.09904,2.056078 -3.96841,4.444692 -5.70936,6.740847 -4.65464,6.074665 -10.16495,14.321621 -13.55925,19.169677 -6.13337,2.02254 -10.82577,4.866768 -14.28364,8.000761 -7.8816,7.129486 -9.17953,13.77819 -9.5038,13.670574 z" fill="#fff"/></g></g></svg>